<svg width="40" height="40" viewBox="0 0 40 40" fill="none" xmlns="http://www.w3.org/2000/svg">
<path d="M39.9535 39.1439C39.9535 39.1222 39.9611 39.1006 39.9637 39.079C39.9656 39.0561 39.9656 39.0331 39.9637 39.0103C39.9637 38.9976 39.9637 38.9836 39.9637 38.9708V26.3821C39.9644 26.1481 39.8729 25.9232 39.7091 25.7561L34.4112 20.3975C34.2945 20.2786 34.2292 20.1187 34.2292 19.9522C34.2292 19.7857 34.2945 19.6258 34.4112 19.5069L39.5793 14.1762C39.7406 14.0116 39.8319 13.7909 39.8338 13.5605L39.886 0.886457C39.886 0.872462 39.886 0.858468 39.886 0.844473C39.8873 0.821167 39.8873 0.797806 39.886 0.7745C39.886 0.752872 39.886 0.731244 39.8759 0.709616C39.8657 0.687988 39.8669 0.667632 39.8606 0.647276C39.8545 0.624445 39.8473 0.60194 39.8389 0.579848C39.8389 0.567126 39.8313 0.553131 39.8262 0.540409C39.8211 0.527686 39.8198 0.528958 39.8173 0.522597C39.8148 0.516236 39.7969 0.480614 39.7855 0.460258L39.7549 0.406824C39.7422 0.38774 39.7295 0.369929 39.7155 0.352118C39.7015 0.334306 39.6913 0.317767 39.6773 0.301228C39.6633 0.284689 39.6467 0.269422 39.6315 0.254155L39.5856 0.209627C39.5691 0.195633 39.5513 0.18291 39.5334 0.170188C39.5156 0.157466 39.4991 0.143471 39.48 0.132021C39.4609 0.120571 39.4443 0.111665 39.4252 0.101487L39.3641 0.0696814L39.3438 0.0595035L39.3056 0.0467811C39.2839 0.0386619 39.2618 0.0318641 39.2394 0.0264253C39.219 0.0200642 39.1974 0.0162474 39.1757 0.0111584L39.1121 0.000980534C39.0888 -0.000326845 39.0654 -0.000326845 39.0421 0.000980534H39.0039H26.4019C26.1678 0.000279007 25.9428 0.0916808 25.7756 0.255428L20.3885 5.57083C20.2696 5.68738 20.1096 5.75267 19.943 5.75267C19.7764 5.75267 19.6165 5.68738 19.4975 5.57083L14.1945 0.442447C14.0298 0.281155 13.8089 0.189949 13.5784 0.187999L0.897416 0.135838H0.854137H0.787944C0.765031 0.135838 0.743392 0.143471 0.721752 0.147288L0.659379 0.161282L0.594459 0.18291C0.581045 0.186807 0.567869 0.191479 0.554998 0.196905L0.534631 0.205811C0.514264 0.215988 0.493897 0.226166 0.474803 0.237616C0.455709 0.249067 0.436616 0.2567 0.418795 0.26815L0.365331 0.306317L0.314414 0.345757L0.268589 0.390285L0.222763 0.437358L0.184575 0.488247C0.170572 0.506058 0.157843 0.52387 0.145114 0.542953C0.132385 0.562037 0.124747 0.578576 0.115836 0.596387C0.103972 0.616502 0.0933446 0.63732 0.084013 0.658727C0.0801123 0.665247 0.0767089 0.672051 0.0738303 0.679082C0.0738303 0.690532 0.0661919 0.703255 0.0611002 0.715977C0.0560084 0.7287 0.0458252 0.760506 0.0394606 0.783406C0.0334511 0.803862 0.0287738 0.824685 0.0254582 0.845745C0.0204073 0.867138 0.0165828 0.888801 0.0140023 0.910629C0.0140023 0.93353 0.0140023 0.95643 0.0140023 0.97933C0.0140023 1.00223 0.0140023 1.00477 0.0140023 1.01877V13.6063C0.0133004 13.8402 0.104752 14.0651 0.268589 14.2322L5.51816 19.5425C5.63478 19.6614 5.7001 19.8213 5.7001 19.9878C5.7001 20.1543 5.63478 20.3142 5.51816 20.4331L0.305504 25.8159C0.144124 25.9805 0.0528687 26.2012 0.0509175 26.4317L0 39.1057C0 39.1197 0 39.1337 0 39.1477C0 39.1617 0 39.1948 0 39.2177C0 39.2406 0.00763712 39.2609 0.0114559 39.2825C0.0149071 39.3036 0.0195825 39.3244 0.0254582 39.3449C0.0254582 39.3678 0.0394603 39.3907 0.0470978 39.4123C0.0547354 39.4339 0.0547355 39.439 0.0611002 39.4517L0.0700107 39.4696C0.0793422 39.491 0.0899697 39.5118 0.101834 39.5319C0.110772 39.5504 0.120981 39.5682 0.132385 39.5853C0.143841 39.6044 0.157843 39.6222 0.170572 39.64C0.183302 39.6578 0.196032 39.6744 0.210034 39.6909C0.224322 39.7075 0.239625 39.7233 0.255859 39.738C0.270186 39.7538 0.285491 39.7687 0.301684 39.7825L0.352602 39.822C0.370423 39.8347 0.388243 39.8487 0.406065 39.8601C0.423886 39.8716 0.44298 39.8805 0.460801 39.8907L0.523175 39.9225L0.542268 39.9327L0.616098 39.9581H0.623737C0.660855 39.9695 0.698705 39.9785 0.737027 39.9848H0.765031C0.804261 39.9903 0.843803 39.9933 0.883414 39.9937H13.4778C13.7119 39.9944 13.9369 39.903 14.1041 39.7393L19.5319 34.3793C19.6508 34.2628 19.8108 34.1975 19.9774 34.1975C20.144 34.1975 20.3039 34.2628 20.4229 34.3793L25.7692 39.5586C25.9339 39.7199 26.1548 39.8111 26.3853 39.8131L39.0663 39.8652C39.1059 39.8648 39.1454 39.8618 39.1847 39.8563H39.2127C39.251 39.85 39.2888 39.841 39.3259 39.8296H39.3336C39.359 39.822 39.3832 39.8131 39.4087 39.8029L39.4278 39.7927C39.4488 39.7838 39.4692 39.7736 39.4889 39.7622L39.5436 39.7304C39.5627 39.7189 39.5793 39.7062 39.5971 39.6935C39.6149 39.6807 39.6327 39.6668 39.648 39.6528C39.6633 39.6388 39.6798 39.6235 39.6951 39.6082C39.7104 39.593 39.7256 39.5777 39.7397 39.5612C39.7537 39.5446 39.7664 39.5281 39.7791 39.5115C39.7918 39.495 39.8058 39.4759 39.8173 39.4568C39.8288 39.4377 39.8377 39.4212 39.8478 39.4034C39.8597 39.3829 39.8703 39.3616 39.8797 39.3398C39.8797 39.3398 39.8873 39.3271 39.8899 39.3207C39.8924 39.3143 39.8975 39.2965 39.9013 39.2838C39.9101 39.2617 39.9177 39.2392 39.9242 39.2164C39.9446 39.1858 39.9497 39.1642 39.9535 39.1439ZM25.5096 15.0986V24.8643C25.5096 25.033 25.4425 25.1948 25.3231 25.3141C25.2038 25.4334 25.0419 25.5004 24.8731 25.5004H15.1021C14.9333 25.5004 14.7714 25.4334 14.652 25.3141C14.5326 25.1948 14.4656 25.033 14.4656 24.8643V15.0999C14.4656 14.9312 14.5326 14.7694 14.652 14.6501C14.7714 14.5308 14.9333 14.4638 15.1021 14.4638H24.8731C25.0419 14.4638 25.2038 14.5308 25.3231 14.6501C25.4425 14.7694 25.5096 14.9312 25.5096 15.0999V15.0986ZM37.1047 35.7521L27.48 26.1976C27.4204 26.1385 27.373 26.0681 27.3407 25.9906C27.3083 25.9131 27.2917 25.8299 27.2917 25.7459V17.2729C27.2917 17.1467 27.3292 17.0234 27.3996 16.9186C27.4699 16.8138 27.5698 16.7323 27.6866 16.6844C27.8035 16.6365 27.9319 16.6245 28.0556 16.6497C28.1793 16.675 28.2926 16.7365 28.3813 16.8263L30.8177 19.2894L32.0906 20.5896C32.1213 20.6193 32.1536 20.6473 32.1873 20.6735L38.0085 26.5615C38.1259 26.6805 38.1917 26.8409 38.1918 27.008V35.3017C38.1922 35.4278 38.1552 35.5512 38.0854 35.6562C38.0156 35.7612 37.9161 35.8431 37.7996 35.8915C37.6831 35.9399 37.5549 35.9526 37.4311 35.928C37.3074 35.9034 37.1938 35.8426 37.1047 35.7534V35.7521ZM37.8684 13.3785L33.1802 18.2207C33.121 18.2813 33.0502 18.3294 32.972 18.3623C32.8939 18.3951 32.8099 18.4121 32.7252 18.4121C32.6404 18.4121 32.5564 18.3951 32.4783 18.3623C32.4002 18.3294 32.3294 18.2813 32.2701 18.2207L32.0677 18.0171L28.1445 14.0058C28.0279 13.8868 27.9626 13.727 27.9626 13.5605C27.9626 13.394 28.0279 13.2341 28.1445 13.1152L36.9952 4.16755C37.0842 4.07836 37.1977 4.01759 37.3213 3.99295C37.445 3.96832 37.5731 3.98091 37.6895 4.02915C37.806 4.07739 37.9055 4.1591 37.9754 4.26392C38.0453 4.36874 38.0825 4.49195 38.0823 4.61792L38.0479 12.9396C38.0486 13.1033 37.9862 13.261 37.8735 13.3798L37.8684 13.3785ZM27.0256 1.77448H35.3226C35.4485 1.77425 35.5716 1.81135 35.6764 1.88107C35.7812 1.95079 35.8629 2.05001 35.9113 2.16618C35.9597 2.28234 35.9725 2.41024 35.9482 2.53368C35.9238 2.65713 35.8633 2.77058 35.7745 2.85969L26.2148 12.4791C26.1556 12.5387 26.0852 12.5861 26.0076 12.6184C25.9301 12.6507 25.8469 12.6673 25.7629 12.6674H17.3246C17.198 12.6673 17.0744 12.6296 16.9693 12.559C16.8643 12.4884 16.7828 12.3881 16.7351 12.2709C16.6874 12.1538 16.6758 12.025 16.7016 11.9012C16.7275 11.7774 16.7897 11.6641 16.8803 11.5758L20.61 7.9321C20.6672 7.87635 20.7165 7.81299 20.7564 7.74381C20.7817 7.69755 20.813 7.65479 20.8493 7.61658L26.5775 1.96022C26.6965 1.84162 26.8576 1.77485 27.0256 1.77448ZM13.3963 2.14851L18.2067 6.80744C18.2674 6.86669 18.3155 6.93744 18.3484 7.01554C18.3813 7.09365 18.3982 7.17753 18.3982 7.26227C18.3982 7.347 18.3813 7.43089 18.3484 7.50899C18.3155 7.5871 18.2674 7.65785 18.2067 7.71709L14.0124 11.8582C13.8935 11.9748 13.7335 12.0401 13.5669 12.0401C13.4003 12.0401 13.2404 11.9748 13.1214 11.8582L4.17903 3.02509C4.08891 2.93626 4.02733 2.82259 4.00217 2.69861C3.97701 2.57463 3.98941 2.44596 4.03778 2.32906C4.08615 2.21216 4.1683 2.11232 4.27373 2.04232C4.37916 1.97231 4.50308 1.93531 4.62965 1.93605L12.9559 1.9704C13.1202 1.97073 13.278 2.03455 13.3963 2.14851ZM2.86919 4.24643L12.4964 13.8022C12.556 13.8613 12.6034 13.9317 12.6358 14.0092C12.6681 14.0867 12.6847 14.1699 12.6848 14.2538V22.7257C12.685 22.8519 12.6476 22.9754 12.5774 23.0804C12.5071 23.1854 12.4072 23.2671 12.2904 23.3151C12.1735 23.3632 12.045 23.3753 11.9212 23.3501C11.7974 23.3249 11.6839 23.2634 11.5951 23.1735L1.96795 13.4371C1.85022 13.3177 1.78434 13.1568 1.78465 12.9892V4.69808C1.78467 4.57251 1.82188 4.44976 1.89158 4.34529C1.96128 4.24083 2.06035 4.15931 2.17632 4.11102C2.29229 4.06272 2.41997 4.04981 2.54326 4.07391C2.66656 4.09801 2.77996 4.15803 2.86919 4.24643ZM2.0125 26.6136L6.70708 21.7715C6.76639 21.7105 6.83734 21.662 6.91572 21.6289C6.9941 21.5958 7.07833 21.5788 7.16342 21.5788C7.24851 21.5788 7.33274 21.5958 7.41112 21.6289C7.48951 21.662 7.56045 21.7105 7.61977 21.7715L11.7415 25.9864C11.8581 26.1053 11.9235 26.2652 11.9235 26.4317C11.9235 26.5982 11.8581 26.7581 11.7415 26.877L2.88828 35.8284C2.79898 35.9169 2.68546 35.9769 2.56204 36.001C2.43863 36.0251 2.31085 36.012 2.19483 35.9636C2.07881 35.9151 1.97975 35.8334 1.91014 35.7288C1.84054 35.6241 1.80352 35.5012 1.80374 35.3755L1.83302 27.05C1.83556 26.8871 1.89969 26.7312 2.0125 26.6136ZM12.8604 38.2189H4.56346C4.43757 38.2192 4.31443 38.1821 4.20964 38.1124C4.10484 38.0426 4.02308 37.9434 3.97471 37.8272C3.92634 37.7111 3.91352 37.5832 3.93788 37.4597C3.96224 37.3363 4.02269 37.2228 4.11157 37.1337L13.6726 27.5144C13.7317 27.4547 13.8021 27.4074 13.8797 27.375C13.9572 27.3427 14.0404 27.3261 14.1244 27.3261H22.6009C22.7273 27.3258 22.8508 27.3632 22.9559 27.4334C23.0609 27.5036 23.1426 27.6035 23.1907 27.7203C23.2388 27.8371 23.2509 27.9655 23.2257 28.0892C23.2005 28.213 23.1389 28.3264 23.049 28.4151L13.3085 38.0319C13.1897 38.151 13.0286 38.2182 12.8604 38.2189ZM26.5788 37.8513L21.734 33.1567C21.6732 33.0975 21.6249 33.0266 21.5919 32.9484C21.5589 32.8702 21.5419 32.7862 21.5419 32.7013C21.5419 32.6164 21.5589 32.5323 21.5919 32.4541C21.6249 32.3759 21.6732 32.3051 21.734 32.2458L25.9513 28.1263C26.0702 28.0097 26.2302 27.9445 26.3968 27.9445C26.5634 27.9445 26.7233 28.0097 26.8423 28.1263L35.791 36.9734C35.8811 37.0622 35.9426 37.1757 35.9678 37.2996C35.993 37.4235 35.9807 37.552 35.9325 37.6689C35.8843 37.7857 35.8023 37.8856 35.6971 37.9557C35.5919 38.0258 35.4681 38.0629 35.3417 38.0625L27.0154 38.0281C26.8526 38.0272 26.6964 37.9639 26.5788 37.8513Z" fill="black"/>
</svg>
