<svg width="40" height="40" viewBox="0 0 40 40" fill="none" xmlns="http://www.w3.org/2000/svg">
<path d="M8.85355 8.14645C8.65829 7.95118 8.34171 7.95118 8.14645 8.14645C7.95118 8.34171 7.95118 8.65829 8.14645 8.85355L8.85355 8.14645ZM31.1464 31.8536C31.3417 32.0488 31.6583 32.0488 31.8536 31.8536C32.0488 31.6583 32.0488 31.3417 31.8536 31.1464L31.1464 31.8536ZM31.8536 8.85355C32.0488 8.65829 32.0488 8.34171 31.8536 8.14645C31.6583 7.95118 31.3417 7.95118 31.1464 8.14645L31.8536 8.85355ZM8.14645 31.1464C7.95118 31.3417 7.95118 31.6583 8.14645 31.8536C8.34171 32.0488 8.65829 32.0488 8.85355 31.8536L8.14645 31.1464ZM8.14645 8.85355L31.1464 31.8536L31.8536 31.1464L8.85355 8.14645L8.14645 8.85355ZM31.1464 8.14645L8.14645 31.1464L8.85355 31.8536L31.8536 8.85355L31.1464 8.14645Z" fill="black"/>
</svg>
