<svg width="80" height="80" viewBox="0 0 80 80" fill="none" xmlns="http://www.w3.org/2000/svg">
<path d="M40 5.12673e-07C40.5949 -0.000338107 41.1752 0.167074 41.6597 0.478879C42.1442 0.790683 42.5089 1.23133 42.7029 1.73932L45.9771 10.3224H74.2857C75.8012 10.3224 77.2547 10.8661 78.3263 11.8341C79.398 12.802 80 14.1147 80 15.4836V51.6119C80 52.9807 79.398 54.2935 78.3263 55.2614C77.2547 56.2293 75.8012 56.7731 74.2857 56.7731H63.7143L71.2743 76.5766C71.5213 77.224 71.4735 77.9336 71.1413 78.5492C70.8091 79.1648 70.2197 79.636 69.5029 79.8591C68.786 80.0822 68.0004 80.039 67.3188 79.739C66.6373 79.4389 66.1156 78.9066 65.8686 78.2591L57.6686 56.7731H42.8571V72.2567C42.8571 72.9411 42.5561 73.5975 42.0203 74.0814C41.4845 74.5654 40.7578 74.8373 40 74.8373C39.2422 74.8373 38.5155 74.5654 37.9797 74.0814C37.4439 73.5975 37.1429 72.9411 37.1429 72.2567V56.7731H22.3314L14.1314 78.2591C13.8844 78.9066 13.3627 79.4389 12.6812 79.739C11.9996 80.039 11.214 80.0822 10.4971 79.8591C9.7803 79.636 9.19095 79.1648 8.85874 78.5492C8.52654 77.9336 8.47868 77.224 8.72571 76.5766L16.2857 56.7731H5.71429C4.19876 56.7731 2.74531 56.2293 1.67368 55.2614C0.602039 54.2935 0 52.9807 0 51.6119V15.4836C0 14.1147 0.602039 12.802 1.67368 11.8341C2.74531 10.8661 4.19876 10.3224 5.71429 10.3224H34.0229L37.2971 1.73932C37.4911 1.23133 37.8558 0.790683 38.3403 0.478879C38.8248 0.167074 39.4051 -0.000338107 40 5.12673e-07ZM5.71429 15.4836V51.6119H74.2857V15.4836H5.71429Z" fill="url(#paint0_radial_1504_4521)"/>
<defs>
<radialGradient id="paint0_radial_1504_4521" cx="0" cy="0" r="1" gradientUnits="userSpaceOnUse" gradientTransform="translate(-1.93552e-07 40) scale(80 3388.36)">
<stop stop-color="#25AAE1"/>
<stop offset="1" stop-color="#316CD2"/>
</radialGradient>
</defs>
</svg>
