<svg  viewBox="0 0 40 40" fill="black" xmlns="http://www.w3.org/2000/svg">
<path d="M18 13.4L18 13.6C18 13.8209 17.8209 14 17.6 14L16.5 14C16.2239 14 16 13.7761 16 13.5C16 13.2239 16.2239 13 16.5 13L17.6 13C17.8209 13 18 13.1791 18 13.4Z" stroke="black" stroke-linecap="round"/>
<path d="M24 13.4L24 13.6C24 13.8209 23.8209 14 23.6 14L22.5 14C22.2239 14 22 13.7761 22 13.5C22 13.2239 22.2239 13 22.5 13L23.6 13C23.8209 13 24 13.1791 24 13.4Z" stroke="black" stroke-linecap="round"/>
<path d="M18 26.4L18 26.6C18 26.8209 17.8209 27 17.6 27L16.5 27C16.2239 27 16 26.7761 16 26.5C16 26.2239 16.2239 26 16.5 26L17.6 26C17.8209 26 18 26.1791 18 26.4Z" stroke="black" stroke-linecap="round"/>
<path d="M24 26.4L24 26.6C24 26.8209 23.8209 27 23.6 27L22.5 27C22.2239 27 22 26.7761 22 26.5C22 26.2239 22.2239 26 22.5 26L23.6 26C23.8209 26 24 26.1791 24 26.4Z" stroke="black" stroke-linecap="round"/>
<path d="M18 19.9L18 20.1C18 20.3209 17.8209 20.5 17.6 20.5L16.5 20.5C16.2239 20.5 16 20.2761 16 20C16 19.7239 16.2239 19.5 16.5 19.5L17.6 19.5C17.8209 19.5 18 19.6791 18 19.9Z" stroke="black" stroke-linecap="round"/>
<path d="M24 19.9L24 20.1C24 20.3209 23.8209 20.5 23.6 20.5L22.5 20.5C22.2239 20.5 22 20.2761 22 20C22 19.7239 22.2239 19.5 22.5 19.5L23.6 19.5C23.8209 19.5 24 19.6791 24 19.9Z" stroke="black" stroke-linecap="round"/>
</svg>
