<?xml version="1.0" standalone="no"?>
<!DOCTYPE svg PUBLIC "-//W3C//DTD SVG 20010904//EN"
 "http://www.w3.org/TR/2001/REC-SVG-20010904/DTD/svg10.dtd">
<svg version="1.0" xmlns="http://www.w3.org/2000/svg"
 width="50.000000pt" height="50.000000pt" viewBox="0 0 50.000000 50.000000"
 preserveAspectRatio="xMidYMid meet">

<g transform="translate(0.000000,50.000000) scale(0.100000,-0.100000)"
fill="#000000" stroke="none">
<path d="M145 359 c-55 -44 -102 -84 -103 -90 -5 -13 22 -11 36 3 9 9 12 -12
12 -94 0 -120 -1 -118 81 -118 l49 0 0 60 0 60 30 0 30 0 0 -60 0 -60 49 0
c82 0 81 -1 81 116 0 101 1 104 20 92 31 -20 38 2 7 24 -20 15 -27 28 -27 54
0 19 -4 34 -10 34 -5 0 -10 -9 -10 -20 0 -11 -3 -20 -6 -20 -3 0 -33 23 -67
50 -34 28 -64 50 -67 50 -3 0 -50 -36 -105 -81z m180 -4 l64 -50 1 -107 0
-108 -45 0 -45 0 0 60 0 60 -50 0 -50 0 0 -60 0 -60 -45 0 -45 0 0 108 1 107
67 52 c37 29 70 52 74 50 4 -1 37 -24 73 -52z"/>
</g>
</svg>
