<svg viewBox="0 0 40 40" fill="none" xmlns="http://www.w3.org/2000/svg">
<path d="M19.9067 27.2039C20.1019 27.0086 20.1019 26.692 19.9067 26.4968C19.7114 26.3015 19.3948 26.3015 19.1996 26.4968L19.9067 27.2039ZM22.304 18.4426C22.4992 18.6379 22.8158 18.6379 23.0111 18.4426C23.2063 18.2474 23.2063 17.9308 23.0111 17.7355L22.304 18.4426ZM13.8421 21.9547L17.3542 18.4426L16.6471 17.7355L13.135 21.2476L13.8421 21.9547ZM19.4973 27.6132L19.9067 27.2039L19.1996 26.4968L18.7902 26.9061L19.4973 27.6132ZM17.3542 18.4426C18.7211 17.0758 20.9371 17.0758 22.304 18.4426L23.0111 17.7355C21.2537 15.9781 18.4045 15.9781 16.6471 17.7355L17.3542 18.4426ZM13.8421 26.9045C12.4753 25.5376 12.4753 23.3215 13.8421 21.9547L13.135 21.2476C11.3777 23.005 11.3777 25.8542 13.135 27.6116L13.8421 26.9045ZM13.135 27.6116C14.8921 29.3687 17.7397 29.3708 19.4973 27.6132L18.7902 26.9061C17.4237 28.2727 15.2092 28.2716 13.8421 26.9045L13.135 27.6116Z" fill="#969494"/>
<path d="M21.6324 12.7498C21.4371 12.9451 21.4371 13.2617 21.6324 13.4569C21.8277 13.6522 22.1442 13.6522 22.3395 13.4569L21.6324 12.7498ZM19.2351 21.5111C19.0398 21.3158 18.7232 21.3158 18.528 21.5111C18.3327 21.7064 18.3327 22.023 18.528 22.2182L19.2351 21.5111ZM27.6969 17.999L24.1848 21.5111L24.8919 22.2182L28.404 18.7061L27.6969 17.999ZM22.0417 12.3405L21.6324 12.7498L22.3395 13.4569L22.7488 13.0476L22.0417 12.3405ZM24.1848 21.5111C22.818 22.8779 20.6019 22.8779 19.2351 21.5111L18.528 22.2182C20.2853 23.9756 23.1346 23.9756 24.8919 22.2182L24.1848 21.5111ZM27.6969 13.0493C29.0638 14.4161 29.0638 16.6322 27.6969 17.999L28.404 18.7061C30.1614 16.9488 30.1614 14.0995 28.404 12.3422L27.6969 13.0493ZM28.404 12.3422C26.6469 10.5851 23.7994 10.5829 22.0417 12.3405L22.7488 13.0476C24.1154 11.681 26.3298 11.6822 27.6969 13.0493L28.404 12.3422Z" fill="#969494"/>
</svg>
