<svg width="24" height="24" viewBox="0 0 24 24" fill="none" xmlns="http://www.w3.org/2000/svg">
<g clip-path="url(#clip0_99_380)">
<path fill-rule="evenodd" clip-rule="evenodd" d="M14.5455 21C14.5455 21.2652 14.4688 21.5196 14.3324 21.7071C14.1961 21.8946 14.0111 22 13.8182 22H2.18182C1.98893 22 1.80395 21.8946 1.66756 21.7071C1.53117 21.5196 1.45455 21.2652 1.45455 21V3C1.45455 2.73478 1.53117 2.48043 1.66756 2.29289C1.80395 2.10536 1.98893 2 2.18182 2H13.8182C14.0111 2 14.1961 2.10536 14.3324 2.29289C14.4688 2.48043 14.5455 2.73478 14.5455 3V7C14.5455 7.26522 14.6221 7.51957 14.7585 7.70711C14.8949 7.89464 15.0798 8 15.2727 8C15.4656 8 15.6506 7.89464 15.787 7.70711C15.9234 7.51957 16 7.26522 16 7V3C16 2.20435 15.7701 1.44129 15.361 0.87868C14.9518 0.316071 14.3968 0 13.8182 0H2.18182C1.60316 0 1.04821 0.316071 0.63904 0.87868C0.229869 1.44129 0 2.20435 0 3L0 21C0 21.7956 0.229869 22.5587 0.63904 23.1213C1.04821 23.6839 1.60316 24 2.18182 24H13.8182C14.3968 24 14.9518 23.6839 15.361 23.1213C15.7701 22.5587 16 21.7956 16 21V17C16 16.7348 15.9234 16.4804 15.787 16.2929C15.6506 16.1054 15.4656 16 15.2727 16C15.0798 16 14.8949 16.1054 14.7585 16.2929C14.6221 16.4804 14.5455 16.7348 14.5455 17V21Z" fill="#000118"/>
<path fill-rule="evenodd" clip-rule="evenodd" d="M23.781 12.531C23.8508 12.4613 23.9063 12.3785 23.9441 12.2874C23.9819 12.1963 24.0013 12.0986 24.0013 12C24.0013 11.9013 23.9819 11.8036 23.9441 11.7125C23.9063 11.6214 23.8508 11.5386 23.781 11.469L19.281 6.96897C19.1402 6.82814 18.9492 6.74902 18.75 6.74902C18.5508 6.74902 18.3598 6.82814 18.219 6.96897C18.0782 7.1098 17.9991 7.30081 17.9991 7.49997C17.9991 7.69913 18.0782 7.89014 18.219 8.03097L21.4395 11.25H8.25C8.05109 11.25 7.86032 11.329 7.71967 11.4696C7.57902 11.6103 7.5 11.8011 7.5 12C7.5 12.1989 7.57902 12.3896 7.71967 12.5303C7.86032 12.671 8.05109 12.75 8.25 12.75H21.4395L18.219 15.969C18.0782 16.1098 17.9991 16.3008 17.9991 16.5C17.9991 16.6991 18.0782 16.8901 18.219 17.031C18.3598 17.1718 18.5508 17.2509 18.75 17.2509C18.9492 17.2509 19.1402 17.1718 19.281 17.031L23.781 12.531Z" fill="#000118"/>
</g>
<defs>
<clipPath id="clip0_99_380">
<rect width="24" height="24" fill="white"/>
</clipPath>
</defs>
</svg>
