<svg width="80" height="80" viewBox="0 0 80 80" fill="none" xmlns="http://www.w3.org/2000/svg">
<path d="M47.5036 12.2915C47.5036 12.9914 47.7817 13.6626 48.2766 14.1575C48.7715 14.6523 49.4427 14.9303 50.1426 14.9303C50.8425 14.9303 51.5138 14.6523 52.0087 14.1575C52.5036 13.6626 52.7816 12.9914 52.7816 12.2915V2.6388C52.7816 1.93895 52.5036 1.26776 52.0087 0.772887C51.5138 0.278016 50.8425 0 50.1426 0C49.4427 0 48.7715 0.278016 48.2766 0.772887C47.7817 1.26776 47.5036 1.93895 47.5036 2.6388V12.2915ZM71.2544 12.4763C71.7351 11.9786 72.0011 11.312 71.9951 10.6201C71.9891 9.92824 71.7116 9.26639 71.2223 8.77713C70.733 8.28788 70.0711 8.01036 69.3792 8.00435C68.6873 7.99833 68.0206 8.26431 67.5229 8.74499L60.6985 15.5689C60.4465 15.8124 60.2454 16.1035 60.1071 16.4255C59.9688 16.7474 59.896 17.0937 59.893 17.4441C59.8899 17.7944 59.9567 18.1419 60.0894 18.4662C60.2221 18.7905 60.418 19.0851 60.6658 19.3329C60.9136 19.5807 61.2082 19.7766 61.5326 19.9093C61.8569 20.042 62.2044 20.1087 62.5548 20.1057C62.9052 20.1026 63.2515 20.0299 63.5734 19.8916C63.8954 19.7533 64.1866 19.5522 64.43 19.3002L71.2544 12.4763ZM35.8552 19.3002C36.0986 19.5522 36.3898 19.7533 36.7118 19.8916C37.0338 20.0299 37.3801 20.1026 37.7305 20.1057C38.0809 20.1087 38.4284 20.042 38.7527 19.9093C39.077 19.7766 39.3717 19.5807 39.6194 19.3329C39.8672 19.0851 40.0632 18.7905 40.1959 18.4662C40.3285 18.1419 40.3953 17.7944 40.3923 17.4441C40.3892 17.0937 40.3164 16.7474 40.1781 16.4255C40.0398 16.1035 39.8388 15.8124 39.5867 15.5689L32.7623 8.74499C32.2646 8.26431 31.598 7.99833 30.9061 8.00435C30.2141 8.01036 29.5522 8.28788 29.063 8.77713C28.5737 9.26639 28.2961 9.92824 28.2901 10.6201C28.2841 11.312 28.5501 11.9786 29.0308 12.4763L35.8552 19.3002ZM32.5776 32.4942C33.2775 32.4942 33.9487 32.2162 34.4436 31.7213C34.9385 31.2264 35.2166 30.5553 35.2166 29.8554C35.2166 29.1556 34.9385 28.4844 34.4436 27.9895C33.9487 27.4946 33.2775 27.2166 32.5776 27.2166H22.9242C22.2243 27.2166 21.5531 27.4946 21.0582 27.9895C20.5633 28.4844 20.2852 29.1556 20.2852 29.8554C20.2852 30.5553 20.5633 31.2264 21.0582 31.7213C21.5531 32.2162 22.2243 32.4942 22.9242 32.4942H32.5776ZM77.361 32.4942C78.0609 32.4942 78.7322 32.2162 79.2271 31.7213C79.722 31.2264 80 30.5553 80 29.8554C80 29.1556 79.722 28.4844 79.2271 27.9895C78.7322 27.4946 78.0609 27.2166 77.361 27.2166H67.7076C67.0078 27.2166 66.3365 27.4946 65.8416 27.9895C65.3467 28.4844 65.0687 29.1556 65.0687 29.8554C65.0687 30.5553 65.3467 31.2264 65.8416 31.7213C66.3365 32.2162 67.0078 32.4942 67.7076 32.4942H77.361ZM67.5229 50.9658C67.7664 51.2179 68.0576 51.4189 68.3795 51.5572C68.7015 51.6955 69.0478 51.7683 69.3982 51.7713C69.7486 51.7744 70.0961 51.7076 70.4204 51.5749C70.7447 51.4422 71.0394 51.2463 71.2871 50.9985C71.5349 50.7508 71.7309 50.4561 71.8636 50.1318C71.9963 49.8075 72.063 49.4601 72.06 49.1097C72.0569 48.7593 71.9841 48.413 71.8458 48.0911C71.7075 47.7692 71.5065 47.478 71.2544 47.2346L64.43 40.4106C64.1866 40.1586 63.8954 39.9576 63.5734 39.8193C63.2515 39.681 62.9052 39.6082 62.5548 39.6051C62.2044 39.6021 61.8569 39.6688 61.5326 39.8015C61.2082 39.9342 60.9136 40.1301 60.6658 40.3779C60.418 40.6257 60.2221 40.9203 60.0894 41.2446C59.9567 41.5689 59.8899 41.9164 59.893 42.2668C59.896 42.6171 59.9688 42.9634 60.1071 43.2853C60.2454 43.6073 60.4465 43.8985 60.6985 44.1419L67.5229 50.9658ZM47.5036 57.072C47.5036 57.7719 47.7817 58.4431 48.2766 58.9379C48.7715 59.4328 49.4427 59.7108 50.1426 59.7108C50.8425 59.7108 51.5138 59.4328 52.0087 58.9379C52.5036 58.4431 52.7816 57.7719 52.7816 57.072V47.4193C52.7816 46.7194 52.5036 46.0482 52.0087 45.5534C51.5138 45.0585 50.8425 44.7805 50.1426 44.7805C49.4427 44.7805 48.7715 45.0585 48.2766 45.5534C47.7817 46.0482 47.5036 46.7194 47.5036 47.4193V57.072ZM57.289 30.1721C57.7821 29.6774 58.059 29.0075 58.059 28.3091C58.059 27.6106 57.7821 26.9407 57.289 26.4461L53.5522 22.7095C53.0573 22.2148 52.3862 21.9369 51.6864 21.9369C50.9867 21.9369 50.3156 22.2148 49.8207 22.7095L42.9963 29.5388C42.5015 30.0336 42.2236 30.7047 42.2236 31.4044C42.2236 32.1041 42.5015 32.7752 42.9963 33.27L46.7331 37.0066C47.2279 37.5013 47.8991 37.7792 48.5988 37.7792C49.2986 37.7792 49.9697 37.5013 50.4646 37.0066L57.289 30.1826V30.1721ZM41.4551 46.0049C41.9482 45.5102 42.2251 44.8403 42.2251 44.1419C42.2251 43.4435 41.9482 42.7735 41.4551 42.2789L37.7183 38.5423C37.2234 38.0476 36.5523 37.7697 35.8526 37.7697C35.1528 37.7697 34.4817 38.0476 33.9868 38.5423L0.772657 71.7596C0.277925 72.2544 0 72.9255 0 73.6252C0 74.3249 0.277925 74.996 0.772657 75.4909L4.50945 79.2274C5.00433 79.7221 5.67544 80 6.3752 80C7.07497 80 7.74608 79.7221 8.24096 79.2274L41.4551 46.0049Z" fill="url(#paint0_radial_1504_4505)"/>
<defs>
<radialGradient id="paint0_radial_1504_4505" cx="0" cy="0" r="1" gradientUnits="userSpaceOnUse" gradientTransform="translate(-1.93552e-07 40) scale(80 3388.36)">
<stop stop-color="#25AAE1"/>
<stop offset="1" stop-color="#316CD2"/>
</radialGradient>
</defs>
</svg>
