<svg width="16" height="16" viewBox="0 0 16 16" fill="none" xmlns="http://www.w3.org/2000/svg">
<g clip-path="url(#clip0_82_1406)">
<path d="M12.1455 0.145995C12.192 0.0994335 12.2471 0.0624923 12.3079 0.0372869C12.3686 0.0120816 12.4337 -0.000892639 12.4995 -0.000892639C12.5653 -0.000892639 12.6304 0.0120816 12.6911 0.0372869C12.7519 0.0624923 12.807 0.0994335 12.8535 0.145995L15.8534 3.14586C15.8999 3.19231 15.9369 3.24748 15.9621 3.30822C15.9873 3.36897 16.0002 3.43408 16.0002 3.49985C16.0002 3.56561 15.9873 3.63073 15.9621 3.69147C15.9369 3.75222 15.8999 3.80739 15.8534 3.85383L5.85379 13.8534C5.80581 13.901 5.74866 13.9385 5.6858 13.9634L0.68602 15.9633C0.59516 15.9997 0.495624 16.0086 0.399752 15.9889C0.30388 15.9692 0.215888 15.9219 0.146685 15.8527C0.0774811 15.7835 0.0301096 15.6955 0.0104431 15.5996C-0.00922354 15.5037 -0.000320429 15.4042 0.0360486 15.3133L2.03596 10.3135C2.06089 10.2507 2.09831 10.1935 2.14596 10.1456L12.1455 0.145995ZM11.2066 2.49989L13.4995 4.79279L14.7924 3.49985L12.4995 1.20695L11.2066 2.49989ZM12.7925 5.49976L10.4996 3.20686L3.99988 9.70658V9.99956H4.49985C4.63246 9.99956 4.75963 10.0522 4.85339 10.146C4.94715 10.2398 4.99983 10.3669 4.99983 10.4995V10.9995H5.49981C5.63241 10.9995 5.75958 11.0522 5.85335 11.146C5.94711 11.2397 5.99979 11.3669 5.99979 11.4995V11.9995H6.29278L12.7925 5.49976ZM3.03192 10.6745L2.92592 10.7805L1.39799 14.6014L5.21882 13.0734L5.32482 12.9674C5.22944 12.9318 5.14722 12.8679 5.08914 12.7843C5.03107 12.7006 4.99991 12.6013 4.99983 12.4995V11.9995H4.49985C4.36725 11.9995 4.24008 11.9468 4.14632 11.853C4.05255 11.7593 3.99988 11.6321 3.99988 11.4995V10.9995H3.4999C3.39808 10.9994 3.29872 10.9683 3.21509 10.9102C3.13146 10.8521 3.06755 10.7699 3.03192 10.6745Z" fill="#638DBA"/>
</g>
<defs>
<clipPath id="clip0_82_1406">
<rect width="16" height="16" fill="white"/>
</clipPath>
</defs>
</svg>
