<svg viewBox="0 0 180 180" fill="none" xmlns="http://www.w3.org/2000/svg">
<g clip-path="url(#clip0_1951_1788)">
<rect width="180" height="179.659" fill="white"/>
<path d="M60.5905 116.182V63.3181C60.5905 61.8116 61.8116 60.5908 63.3177 60.5908H116.204C117.71 60.5908 118.932 61.8116 118.932 63.3181V116.203C118.932 117.71 117.71 118.931 116.203 118.931L63.3167 118.909C61.8109 118.908 60.5905 117.687 60.5905 116.182Z" stroke="#3182CE" stroke-width="2"/>
<path d="M118.295 61.0225L178.363 1.15918" stroke="#3182CE" stroke-width="2"/>
<path d="M61.0227 60.852L1.1593 1.15918" stroke="#3182CE" stroke-width="2"/>
<path d="M118.295 118.466L178.124 178.363" stroke="#3182CE" stroke-width="2"/>
<path d="M61.0227 118.466L1.39832 178.363" stroke="#3182CE" stroke-width="2"/>
<path d="M61.3418 60.6251L118.609 1.71447C119.251 1.05418 120.133 0.681641 121.054 0.681641H175.459C177.331 0.681641 178.853 2.19114 178.868 4.06308L179.307 58.134C179.314 59.0408 178.96 59.9129 178.322 60.5579L149.108 90.1192" stroke="#3182CE" stroke-width="2"/>
<path d="M90.239 30.534L60.9041 1.66109C60.2663 1.03342 59.4075 0.681641 58.5127 0.681641H4.09096C2.20819 0.681641 0.681885 2.20794 0.681885 4.09073V58.4685C0.681885 59.3892 1.05437 60.2708 1.71457 60.9128L60.8643 118.419" stroke="#3182CE" stroke-width="2"/>
<path d="M89.2837 148.988L118.619 177.861C119.256 178.488 120.115 178.84 121.01 178.84H175.431C177.314 178.84 178.841 177.314 178.841 175.431V121.053C178.841 120.132 178.468 119.251 177.808 118.609L118.778 61.2217" stroke="#3182CE" stroke-width="2"/>
<path d="M118.181 118.897L60.913 177.807C60.271 178.468 59.3895 178.84 58.4687 178.84H4.09096C2.20819 178.84 0.681885 177.314 0.681885 175.431V121.01C0.681885 120.115 1.03367 119.256 1.66133 118.618L30.5342 89.2832" stroke="#3182CE" stroke-width="2"/>
</g>
<defs>
<clipPath id="clip0_1951_1788">
<rect width="180" height="179.659" fill="white"/>
</clipPath>
</defs>
</svg>
