<svg  viewBox="0 0 40 40" fill="none" xmlns="http://www.w3.org/2000/svg">
<path d="M28.5 13.4986L22 13.4986M11.4568 13.4986L18 13.4986M18 13.4986L22 13.4986M18 13.4986L18.3105 12.2573C18.4219 11.8122 18.8218 11.5 19.2806 11.5L20.7194 11.5C21.1782 11.5 21.5781 11.8122 21.6895 12.2573L22 13.4986M23.5 25.5L24.5 18.5M20 25.5L20 18.5M16.5 25.5L15.5 18.5M12.6262 15.5L27.3344 15.5C27.9473 15.5 28.416 16.0463 28.3228 16.652L26.6305 27.6521C26.5554 28.1399 26.1357 28.5 25.6421 28.5L14.3551 28.5C13.8628 28.5 13.4437 28.1416 13.3672 27.6553L11.6384 16.6553C11.543 16.0485 12.012 15.5 12.6262 15.5Z" stroke="#969494" stroke-linecap="round"/>
</svg>
