<svg  viewBox="0 0 40 40" fill="none" xmlns="http://www.w3.org/2000/svg">
<path d="M20 12L20.3653 11.6586L20 11.2678L19.6347 11.6586L20 12ZM15.8086 15.7516C15.6201 15.9533 15.6307 16.2697 15.8325 16.4583C16.0342 16.6469 16.3506 16.6362 16.5392 16.4345L15.8086 15.7516ZM23.4608 16.4345C23.6494 16.6362 23.9658 16.6469 24.1675 16.4583C24.3693 16.2697 24.3799 15.9533 24.1914 15.7516L23.4608 16.4345ZM19.5 23.1628C19.5 23.4389 19.7239 23.6628 20 23.6628C20.2761 23.6628 20.5 23.4389 20.5 23.1628H19.5ZM15.7209 28.5H24.2791V27.5H15.7209V28.5ZM19.6347 11.6586L15.8086 15.7516L16.5392 16.4345L20.3653 12.3414L19.6347 11.6586ZM19.6347 12.3414L23.4608 16.4345L24.1914 15.7516L20.3653 11.6586L19.6347 12.3414ZM19.5 12V23.1628H20.5V12H19.5ZM15.7209 21.0581H16.1739V20.0581H15.7209V21.0581ZM24.2791 20.0581H23.8261V21.0581H24.2791V20.0581ZM28.5 24.2791C28.5 21.9479 26.6102 20.0581 24.2791 20.0581V21.0581C26.0579 21.0581 27.5 22.5002 27.5 24.2791H28.5ZM24.2791 28.5C26.6102 28.5 28.5 26.6102 28.5 24.2791H27.5C27.5 26.0579 26.0579 27.5 24.2791 27.5V28.5ZM11.5 24.2791C11.5 26.6102 13.3898 28.5 15.7209 28.5V27.5C13.9421 27.5 12.5 26.0579 12.5 24.2791H11.5ZM12.5 24.2791C12.5 22.5002 13.9421 21.0581 15.7209 21.0581V20.0581C13.3898 20.0581 11.5 21.9479 11.5 24.2791H12.5Z" fill="black"/>
</svg>
