<svg width="20" height="20" viewBox="0 0 20 20" fill="none" xmlns="http://www.w3.org/2000/svg">
<path d="M1.42854 9.7866C1.42832 8.40733 1.7912 7.0523 2.4807 5.85773C3.17019 4.66317 4.16201 3.67116 5.35644 2.98143C6.55087 2.2917 7.90583 1.92855 9.2851 1.9285C10.6644 1.92845 12.0194 2.29148 13.2138 2.98112C13.3778 3.07434 13.572 3.09893 13.754 3.04951C13.936 3.00009 14.0911 2.88068 14.1854 2.71734C14.2797 2.554 14.3056 2.35998 14.2574 2.17763C14.2092 1.99529 14.0908 1.83941 13.9281 1.74402C12.158 0.722029 10.1001 0.312671 8.07357 0.579432C6.04707 0.846192 4.16521 1.77416 2.71985 3.21943C1.27449 4.6647 0.3464 6.54649 0.0795093 8.57298C-0.187381 10.5995 0.221845 12.6574 1.24372 14.4276C2.2656 16.1978 3.84302 17.5814 5.73135 18.3637C7.61968 19.1461 9.7134 19.2835 11.6878 18.7546C13.6622 18.2258 15.4069 17.0603 16.6514 15.4388C17.8959 13.8174 18.5705 11.8306 18.5708 9.7866C18.5708 9.59717 18.4956 9.41549 18.3616 9.28154C18.2277 9.14759 18.046 9.07234 17.8565 9.07234C17.6671 9.07234 17.4854 9.14759 17.3515 9.28154C17.2175 9.41549 17.1423 9.59717 17.1423 9.7866C17.1423 11.8704 16.3145 13.8688 14.8411 15.3422C13.3676 16.8157 11.3692 17.6435 9.28541 17.6435C7.20164 17.6435 5.20321 16.8157 3.72976 15.3422C2.25631 13.8688 1.42854 11.8704 1.42854 9.7866Z" fill="#000018"/>
<path d="M19.7912 3.14957C19.8576 3.08316 19.9103 3.00432 19.9463 2.91756C19.9822 2.83079 20.0007 2.73779 20.0007 2.64387C20.0007 2.54996 19.9822 2.45696 19.9463 2.37019C19.9103 2.28343 19.8576 2.20459 19.7912 2.13818C19.7248 2.07177 19.646 2.01909 19.5592 1.98315C19.4725 1.94721 19.3795 1.92871 19.2855 1.92871C19.1916 1.92871 19.0986 1.94721 19.0119 1.98315C18.9251 2.01909 18.8463 2.07177 18.7798 2.13818L9.28589 11.6336L5.50602 7.85227C5.43961 7.78586 5.36077 7.73318 5.274 7.69724C5.18723 7.6613 5.09424 7.6428 5.00032 7.6428C4.9064 7.6428 4.81341 7.6613 4.72664 7.69724C4.63987 7.73318 4.56103 7.78586 4.49462 7.85227C4.42821 7.91867 4.37554 7.99751 4.33959 8.08428C4.30365 8.17105 4.28516 8.26405 4.28516 8.35796C4.28516 8.45188 4.30365 8.54488 4.33959 8.63164C4.37554 8.71841 4.42821 8.79725 4.49462 8.86366L8.78019 13.1492C8.84654 13.2157 8.92536 13.2685 9.01213 13.3045C9.09891 13.3405 9.19194 13.3591 9.28589 13.3591C9.37984 13.3591 9.47286 13.3405 9.55964 13.3045C9.64641 13.2685 9.72523 13.2157 9.79158 13.1492L19.7912 3.14957Z" fill="#000018"/>
</svg>
