<svg width="20" height="20" viewBox="0 0 20 20" fill="none" xmlns="http://www.w3.org/2000/svg">
<g clip-path="url(#clip0_411_5191)">
<path d="M16.25 0H7.5C6.83696 0 6.20107 0.263392 5.73223 0.732233C5.26339 1.20107 5 1.83696 5 2.5C4.33696 2.5 3.70107 2.76339 3.23223 3.23223C2.76339 3.70107 2.5 4.33696 2.5 5V17.5C2.5 18.163 2.76339 18.7989 3.23223 19.2678C3.70107 19.7366 4.33696 20 5 20H13.75C14.413 20 15.0489 19.7366 15.5178 19.2678C15.9866 18.7989 16.25 18.163 16.25 17.5C16.913 17.5 17.5489 17.2366 18.0178 16.7678C18.4866 16.2989 18.75 15.663 18.75 15V2.5C18.75 1.83696 18.4866 1.20107 18.0178 0.732233C17.5489 0.263392 16.913 0 16.25 0V0ZM16.25 16.25V5C16.25 4.33696 15.9866 3.70107 15.5178 3.23223C15.0489 2.76339 14.413 2.5 13.75 2.5H6.25C6.25 2.16848 6.3817 1.85054 6.61612 1.61612C6.85054 1.3817 7.16848 1.25 7.5 1.25H16.25C16.5815 1.25 16.8995 1.3817 17.1339 1.61612C17.3683 1.85054 17.5 2.16848 17.5 2.5V15C17.5 15.3315 17.3683 15.6495 17.1339 15.8839C16.8995 16.1183 16.5815 16.25 16.25 16.25ZM3.75 5C3.75 4.66848 3.8817 4.35054 4.11612 4.11612C4.35054 3.8817 4.66848 3.75 5 3.75H13.75C14.0815 3.75 14.3995 3.8817 14.6339 4.11612C14.8683 4.35054 15 4.66848 15 5V17.5C15 17.8315 14.8683 18.1495 14.6339 18.3839C14.3995 18.6183 14.0815 18.75 13.75 18.75H5C4.66848 18.75 4.35054 18.6183 4.11612 18.3839C3.8817 18.1495 3.75 17.8315 3.75 17.5V5Z" fill="#000018"/>
</g>
<defs>
<clipPath id="clip0_411_5191">
<rect width="20" height="20" fill="white"/>
</clipPath>
</defs>
</svg>
