<svg width="20" height="20" viewBox="0 0 20 20" fill="none" xmlns="http://www.w3.org/2000/svg">
<path d="M5.06546 8.39938L2.50149 10.9634C1.63487 11.83 1.148 13.0054 1.148 14.231C1.148 15.4565 1.63487 16.6319 2.50149 17.4986C3.36811 18.3652 4.5435 18.852 5.76909 18.852C6.99467 18.852 8.17006 18.3652 9.03669 17.4986L12.3043 14.231C12.8275 13.7083 13.2176 13.0678 13.4418 12.3631C13.6661 11.6585 13.718 10.9103 13.5931 10.1814C13.4683 9.45253 13.1703 8.76427 12.7243 8.17443C12.2783 7.5846 11.6972 7.11042 11.0299 6.79172L10.1259 7.69576C10.0322 7.78943 9.95161 7.89181 9.88735 8.00182C10.4027 8.1498 10.8705 8.42972 11.2446 8.8139C11.6186 9.19809 11.8858 9.67325 12.02 10.1924C12.1541 10.7115 12.1503 11.2567 12.0092 11.774C11.868 12.2912 11.5943 12.7627 11.2151 13.1418L7.94749 16.4094C7.36974 16.9871 6.58614 17.3117 5.76909 17.3117C4.95203 17.3117 4.16843 16.9871 3.59069 16.4094C3.01294 15.8316 2.68836 15.048 2.68836 14.231C2.68836 13.4139 3.01294 12.6303 3.59069 12.0526L5.26261 10.3806C5.09051 9.73365 5.02407 9.06379 5.06655 8.39829L5.06546 8.39938Z" fill="#000018"/>
<path d="M7.94705 5.51767C7.42388 6.0403 7.03377 6.68084 6.8095 7.3855C6.58522 8.09016 6.53334 8.83836 6.6582 9.56723C6.78305 10.2961 7.08101 10.9844 7.52703 11.5742C7.97306 12.164 8.55412 12.6382 9.22141 12.9569L10.4174 11.761C9.89501 11.621 9.4187 11.346 9.03632 10.9636C8.65393 10.5812 8.37893 10.105 8.23896 9.58261C8.09899 9.06026 8.09899 8.51027 8.23894 7.98793C8.37889 7.46558 8.65387 6.98927 9.03625 6.60687L12.3038 3.33927C12.8816 2.76153 13.6652 2.43695 14.4822 2.43695C15.2993 2.43695 16.0829 2.76153 16.6606 3.33927C17.2384 3.91702 17.563 4.70062 17.563 5.51767C17.563 6.33473 17.2384 7.11833 16.6606 7.69607L14.9887 9.368C15.1606 10.0139 15.2268 10.6833 15.1848 11.3503L17.7498 8.78527C18.179 8.35617 18.5193 7.84674 18.7516 7.28609C18.9838 6.72543 19.1033 6.12452 19.1033 5.51767C19.1033 4.91082 18.9838 4.30992 18.7516 3.74926C18.5193 3.18861 18.179 2.67918 17.7498 2.25007C17.3207 1.82097 16.8113 1.48058 16.2507 1.24835C15.69 1.01612 15.0891 0.89659 14.4822 0.89659C13.8754 0.89659 13.2745 1.01612 12.7138 1.24835C12.1532 1.48058 11.6438 1.82097 11.2146 2.25007L7.94705 5.51767Z" fill="#000018"/>
</svg>
