<svg width="20" height="13" viewBox="0 0 20 13" fill="none" xmlns="http://www.w3.org/2000/svg">
<path d="M12.7048 11.2014H7.29688V1.65479H12.7049L12.7048 11.2014Z" fill="#FF5F00"/>
<path d="M7.63909 6.42836C7.63909 4.49184 8.56218 2.76677 9.99961 1.65506C8.91155 0.812316 7.56579 0.354929 6.18017 0.35694C2.76687 0.35694 0 3.07517 0 6.42836C0 9.78156 2.76687 12.4998 6.18017 12.4998C7.56582 12.5018 8.91162 12.0444 9.99971 11.2017C8.56238 10.0902 7.63909 8.36499 7.63909 6.42836Z" fill="#EB001B"/>
<path d="M20.0002 6.42836C20.0002 9.78156 17.2333 12.4998 13.82 12.4998C12.4342 12.5018 11.0883 12.0444 10 11.2017C11.4378 10.09 12.3609 8.36499 12.3609 6.42836C12.3609 4.49174 11.4378 2.76677 10 1.65506C11.0883 0.812341 12.4342 0.354964 13.8199 0.35694C17.2332 0.35694 20.0001 3.07517 20.0001 6.42836" fill="#F79E1B"/>
</svg>
