<svg width="16" height="16" viewBox="0 0 16 16" fill="none" xmlns="http://www.w3.org/2000/svg">
<path d="M15.9749 15.6585C15.9749 15.6498 15.978 15.6412 15.979 15.6325C15.98 15.6239 15.979 15.6142 15.979 15.6051C15.979 15.5959 15.979 15.5944 15.979 15.5893V10.5537C15.9793 10.4601 15.9427 10.3701 15.8772 10.3033L13.5844 7.98194L15.8238 5.67128C15.8884 5.60531 15.9249 5.51681 15.9256 5.42444L15.9459 0.354239C15.9459 0.34864 15.9459 0.343551 15.9459 0.337443C15.9459 0.331336 15.9459 0.319121 15.9459 0.309451C15.9459 0.299781 15.9434 0.292655 15.9418 0.284003C15.9403 0.275351 15.9383 0.266699 15.9357 0.258046C15.9332 0.249394 15.9301 0.241251 15.9271 0.232599C15.9257 0.227079 15.924 0.221642 15.922 0.216312C15.922 0.213259 15.9189 0.211223 15.9179 0.208678C15.9169 0.206133 15.9103 0.192391 15.9057 0.184248C15.9011 0.176105 15.8976 0.169488 15.893 0.162363C15.8884 0.155238 15.8833 0.148112 15.8782 0.140987C15.8731 0.133862 15.8675 0.126736 15.8619 0.12012L15.8446 0.101798L15.8253 0.0834752L15.8054 0.0682066L15.7836 0.052429L15.7622 0.0407231L15.7367 0.0274903L15.7291 0.0239276L15.7138 0.018838L15.6874 0.0101858L15.6619 0.00407832L15.636 6.69296e-06H15.6085H15.5927H10.5551C10.4626 -0.00055974 10.3735 0.0348469 10.3067 0.0987438L7.97315 2.40278L5.67522 0.176105C5.60924 0.111459 5.52074 0.0749627 5.42838 0.0743141L0.358174 0.0534469C0.352067 0.0534469 0.346977 0.0534469 0.341379 0.0534469C0.332233 0.0526892 0.323041 0.0526892 0.313895 0.0534469L0.287939 0.0575186C0.279795 0.0575186 0.271143 0.0610812 0.263 0.063626C0.254011 0.0659718 0.245173 0.0688612 0.236534 0.0722782L0.221265 0.0773678L0.213631 0.0809304L0.188692 0.0936543L0.166807 0.105869L0.145431 0.121138C0.138815 0.126227 0.131689 0.131317 0.125073 0.137424C0.118457 0.143532 0.112349 0.14913 0.106751 0.154729C0.101152 0.160327 0.0940271 0.167453 0.0884286 0.174069C0.0828301 0.180685 0.0777403 0.187302 0.0726508 0.193918L0.0573824 0.215803C0.0528018 0.222929 0.0492388 0.230054 0.0451672 0.237688C0.0405909 0.245569 0.0365114 0.253728 0.0329524 0.262118C0.031295 0.264672 0.0299292 0.267403 0.0288807 0.270261C0.0267294 0.275188 0.0250261 0.280298 0.0237912 0.28553C0.020451 0.294023 0.017563 0.302688 0.0151391 0.311487C0.0151391 0.320139 0.0110673 0.328791 0.00903149 0.337443C0.00699567 0.346096 0.00597767 0.354239 0.00495976 0.362891C0.00394185 0.371543 0.00495976 0.381213 0.00495976 0.390375C0.00495976 0.399536 0.00495976 0.401063 0.00495976 0.406152V5.44175C0.00467912 5.53534 0.0412441 5.62529 0.106751 5.69215L2.38025 7.99415L0.122528 10.3287C0.0580041 10.3946 0.0215177 10.4829 0.0207376 10.5751L0.000379359 15.6453C-0.000126453 15.6508 -0.000126453 15.6565 0.000379359 15.6621C0.000379359 15.6717 0.000379359 15.6809 0.000379359 15.69C0.000379359 15.6992 0.000379453 15.7074 0.00445109 15.7155C0.00852272 15.7236 0.00801352 15.7328 0.0105583 15.7415C0.0131031 15.7501 0.0161571 15.7588 0.0192108 15.7674C0.0222645 15.7761 0.0222645 15.7781 0.0243003 15.7837C0.0254635 15.7862 0.0268252 15.7886 0.028372 15.7908C0.0319285 15.7994 0.0360077 15.8077 0.0405868 15.8158L0.0528016 15.8376L0.068579 15.859C0.0736686 15.8661 0.0782493 15.8728 0.0838478 15.8794L0.10217 15.8982C0.108278 15.9043 0.114385 15.9104 0.121002 15.916C0.127467 15.9217 0.134265 15.927 0.141359 15.9318C0.148485 15.9369 0.155102 15.9425 0.162736 15.9471C0.169745 15.9516 0.177057 15.9557 0.184621 15.9593C0.192668 15.964 0.200996 15.9683 0.20956 15.972L0.217194 15.9761C0.226864 15.9801 0.236534 15.9832 0.246204 15.9863H0.249767C0.26468 15.9904 0.279799 15.9938 0.295064 15.9964H0.306261C0.321774 15.9987 0.337415 15.9998 0.353085 16H5.39173C5.48533 16.0003 5.57528 15.9637 5.64214 15.8982L7.98943 13.5794L10.3067 15.8254C10.3725 15.89 10.4608 15.9264 10.553 15.9272L15.6232 15.9481C15.6389 15.9479 15.6545 15.9467 15.6701 15.9445H15.6818C15.6971 15.9419 15.7122 15.9384 15.7271 15.9338H15.7296C15.7398 15.9308 15.7498 15.9272 15.7596 15.9231L15.7678 15.9196L15.7922 15.9069C15.7993 15.9028 15.807 15.8992 15.8141 15.8946L15.8355 15.8794L15.8558 15.8636C15.8623 15.8581 15.8684 15.8521 15.8742 15.8458L15.8925 15.827C15.8981 15.8203 15.9032 15.8132 15.9082 15.8066C15.9133 15.8 15.9189 15.7923 15.9235 15.7847C15.9281 15.7771 15.9317 15.7705 15.9357 15.7633C15.9398 15.7562 15.9444 15.747 15.9485 15.7384C15.9525 15.7297 15.9485 15.7333 15.952 15.7303C15.9542 15.7253 15.9559 15.7202 15.9571 15.715C15.9605 15.7063 15.9634 15.6975 15.9658 15.6885C15.9714 15.6753 15.9729 15.6666 15.9749 15.6585ZM10.1998 5.78478V10.2005H5.78363V5.78529L10.1998 5.78478ZM15.27 14.7327L10.9124 10.4066V6.2917L12.3176 7.71677L12.8265 8.23997C12.8387 8.25199 12.8516 8.26321 12.8652 8.27357L15.266 10.7033L15.27 14.7327ZM15.2145 5.27786L13.0856 7.47502L12.8311 7.21596L11.0798 5.42444L15.2308 1.22353L15.2145 5.27786ZM10.7016 0.709489H14.7346L10.4085 5.06665H6.30479L8.24238 3.17283C8.27246 3.14346 8.2971 3.10899 8.31516 3.07104L10.7016 0.709489ZM5.28281 0.787868L7.46623 2.90359L5.42532 4.92007L1.22798 0.771072L5.28281 0.787868ZM0.713933 1.26934L5.07109 5.59545V9.71034L0.713933 5.30076V1.26934ZM0.733782 10.7216L2.86376 8.52295L4.86954 10.5751L0.717496 14.7739L0.733782 10.7216ZM5.24668 15.2905H1.21322L5.53933 10.9329H9.65422L5.24668 15.2905ZM10.7006 15.2147L8.50246 13.0847L10.5546 11.0789L14.7555 15.2315L10.7006 15.2147Z" fill="#767676"/>
</svg>
