<svg width="40" height="40" viewBox="0 0 40 40" fill="none" xmlns="http://www.w3.org/2000/svg">
<path d="M20 9L20.3536 8.64645L20 8.29289L19.6464 8.64645L20 9ZM14.1464 14.1464C13.9512 14.3417 13.9512 14.6583 14.1464 14.8536C14.3417 15.0488 14.6583 15.0488 14.8536 14.8536L14.1464 14.1464ZM25.1464 14.8536C25.3417 15.0488 25.6583 15.0488 25.8536 14.8536C26.0488 14.6583 26.0488 14.3417 25.8536 14.1464L25.1464 14.8536ZM19.5 24C19.5 24.2761 19.7239 24.5 20 24.5C20.2761 24.5 20.5 24.2761 20.5 24H19.5ZM10 31H30V30H10V31ZM30 27H10V28H30V27ZM19.6464 8.64645L14.1464 14.1464L14.8536 14.8536L20.3536 9.35355L19.6464 8.64645ZM19.6464 9.35355L25.1464 14.8536L25.8536 14.1464L20.3536 8.64645L19.6464 9.35355ZM19.5 9V24H20.5V9H19.5ZM32 29C32 27.8954 31.1046 27 30 27V28C30.5523 28 31 28.4477 31 29H32ZM30 31C31.1046 31 32 30.1046 32 29H31C31 29.5523 30.5523 30 30 30V31ZM8 29C8 30.1046 8.89543 31 10 31V30C9.44772 30 9 29.5523 9 29H8ZM9 29C9 28.4477 9.44772 28 10 28V27C8.89543 27 8 27.8954 8 29H9Z" fill="black"/>
</svg>
