<svg width="40" height="40" viewBox="0 0 40 40" fill="none" xmlns="http://www.w3.org/2000/svg">
<path d="M8.5 30C8.22386 30 8 30.2239 8 30.5C8 30.7761 8.22386 31 8.5 31V30ZM31.5 31C31.7761 31 32 30.7761 32 30.5C32 30.2239 31.7761 30 31.5 30V31ZM8.14645 20.1464C7.95118 20.3417 7.95118 20.6583 8.14645 20.8536C8.34171 21.0488 8.65829 21.0488 8.85355 20.8536L8.14645 20.1464ZM31.1464 20.8536C31.3417 21.0488 31.6583 21.0488 31.8536 20.8536C32.0488 20.6583 32.0488 20.3417 31.8536 20.1464L31.1464 20.8536ZM21.4142 10.4142L21.0607 10.7678L21.4142 10.4142ZM18.2322 10.0607L11.1464 17.1464L11.8536 17.8536L18.9393 10.7678L18.2322 10.0607ZM11.1464 17.1464L8.14645 20.1464L8.85355 20.8536L11.8536 17.8536L11.1464 17.1464ZM8.5 31H11.5V30H8.5V31ZM11 17.5V30.5H12V17.5H11ZM11.5 31H27.5V30H11.5V31ZM21.0607 10.7678L28.1464 17.8536L28.8536 17.1464L21.7678 10.0607L21.0607 10.7678ZM28.1464 17.8536L31.1464 20.8536L31.8536 20.1464L28.8536 17.1464L28.1464 17.8536ZM27.5 31H28.5V30H27.5V31ZM28.5 31H31.5V30H28.5V31ZM28 17.5V30.5H29V17.5H28ZM18.9393 10.7678C19.5251 10.182 20.4749 10.182 21.0607 10.7678L21.7678 10.0607C20.7915 9.08435 19.2085 9.08435 18.2322 10.0607L18.9393 10.7678Z" fill="black"/>
</svg>
