<svg width="40" height="40" viewBox="0 0 40 40" fill="none" xmlns="http://www.w3.org/2000/svg">
<path d="M20 9L20.3536 8.64645L20 8.29289L19.6464 8.64645L20 9ZM14.1464 14.1464C13.9512 14.3417 13.9512 14.6583 14.1464 14.8536C14.3417 15.0488 14.6583 15.0488 14.8536 14.8536L14.1464 14.1464ZM25.1464 14.8536C25.3417 15.0488 25.6583 15.0488 25.8536 14.8536C26.0488 14.6583 26.0488 14.3417 25.8536 14.1464L25.1464 14.8536ZM19.5 24C19.5 24.2761 19.7239 24.5 20 24.5C20.2761 24.5 20.5 24.2761 20.5 24H19.5ZM8 24.5V26.5H9V24.5H8ZM12.5 31H27.5V30H12.5V31ZM32 26.5V24.5H31V26.5H32ZM19.6464 8.64645L14.1464 14.1464L14.8536 14.8536L20.3536 9.35355L19.6464 8.64645ZM19.6464 9.35355L25.1464 14.8536L25.8536 14.1464L20.3536 8.64645L19.6464 9.35355ZM19.5 9V24H20.5V9H19.5ZM12.5 21H14.5V20H12.5V21ZM27.5 20H25.5V21H27.5V20ZM32 24.5C32 22.0147 29.9853 20 27.5 20V21C29.433 21 31 22.567 31 24.5H32ZM27.5 31C29.9853 31 32 28.9853 32 26.5H31C31 28.433 29.433 30 27.5 30V31ZM8 26.5C8 28.9853 10.0147 31 12.5 31V30C10.567 30 9 28.433 9 26.5H8ZM9 24.5C9 22.567 10.567 21 12.5 21V20C10.0147 20 8 22.0147 8 24.5H9Z" fill="black"/>
</svg>
