<svg width="40" height="40" viewBox="0 0 40 40" fill="none" xmlns="http://www.w3.org/2000/svg">
<path d="M12.5 15.5H9.5C8.94772 15.5 8.5 15.9477 8.5 16.5V24.5C8.5 25.0523 8.94772 25.5 9.5 25.5H12M12.5 15.5V10.5C12.5 9.94772 12.9477 9.5 13.5 9.5H26.5C27.0523 9.5 27.5 9.94772 27.5 10.5V15.5M12.5 15.5H27.5M27.5 15.5H30.5C31.0523 15.5 31.5 15.9477 31.5 16.5V24.5C31.5 25.0523 31.0523 25.5 30.5 25.5H28M12 25.5L10.8862 29.2127C10.6937 29.8543 11.1742 30.5 11.844 30.5H28.156C28.8258 30.5 29.3063 29.8543 29.1138 29.2127L28 25.5M12 25.5L12.5 23.5H20H27.5L28 25.5" stroke="black"/>
</svg>
