<svg width="40" height="40" viewBox="0 0 40 40" fill="none" xmlns="http://www.w3.org/2000/svg">
<path d="M8.83713 9.13076C8.63321 8.94456 8.31695 8.95894 8.13076 9.16287C7.94456 9.36679 7.95894 9.68305 8.16287 9.86924L8.83713 9.13076ZM31.1629 30.8692C31.3668 31.0554 31.683 31.0411 31.8692 30.8371C32.0554 30.6332 32.0411 30.317 31.8371 30.1308L31.1629 30.8692ZM31.8371 9.86924C32.0411 9.68305 32.0554 9.36679 31.8692 9.16287C31.683 8.95894 31.3668 8.94456 31.1629 9.13076L31.8371 9.86924ZM8.16287 30.1308C7.95894 30.317 7.94456 30.6332 8.13076 30.8371C8.31695 31.0411 8.63321 31.0554 8.83713 30.8692L8.16287 30.1308ZM8.16287 9.86924L31.1629 30.8692L31.8371 30.1308L8.83713 9.13076L8.16287 9.86924ZM31.1629 9.13076L8.16287 30.1308L8.83713 30.8692L31.8371 9.86924L31.1629 9.13076Z" fill="black"/>
</svg>
