<svg width="40" height="40" viewBox="0 0 40 40" fill="none" xmlns="http://www.w3.org/2000/svg">
<path d="M20.5 26.5H15.5M25.5 19.5V11.5M8.5 14.5V11.5C8.5 10.3954 9.39543 9.5 10.5 9.5H13.5M8.5 14.5L13.5 9.5M8.5 14.5V19M13.5 9.5H18.5M8.5 19L18.5 9.5M8.5 19V23.5M18.5 9.5H22.5M8.5 23.5V24.5C8.5 25.6046 9.39543 26.5 10.5 26.5V26.5M8.5 23.5L22.5 9.5M22.5 9.5H23.5C24.6046 9.5 25.5 10.3954 25.5 11.5V11.5M10.5 26.5L25.5 11.5M10.5 26.5H15.5M15.5 26.5L20.5 21.5M20.5 21.5V24.5V28.5V28.5C20.5 29.6046 21.3954 30.5 22.5 30.5H23.5H27.5H29.5C30.6046 30.5 31.5 29.6046 31.5 28.5V26.5V22.5V21.5C31.5 20.3954 30.6046 19.5 29.5 19.5V19.5H22.5C21.3954 19.5 20.5 20.3954 20.5 21.5V21.5Z" stroke="black"/>
</svg>
