<svg width="40" height="40" viewBox="0 0 40 40" fill="none" xmlns="http://www.w3.org/2000/svg">
<path d="M20.5 26.5H10.5C9.39543 26.5 8.5 25.6046 8.5 24.5V11.5C8.5 10.3954 9.39543 9.5 10.5 9.5H23.5C24.6046 9.5 25.5 10.3954 25.5 11.5V18.6716C25.5 19.202 25.2893 19.7107 24.9142 20.0858L20.5 24.5M20.5 28.5V28.5C20.5 29.6046 21.3954 30.5 22.5 30.5H23.5M20.5 28.5L29.5 19.5M20.5 28.5V24.5M29.5 19.5H22.5C21.3954 19.5 20.5 20.3954 20.5 21.5V24.5M29.5 19.5V19.5C30.6046 19.5 31.5 20.3954 31.5 21.5V22.5M23.5 30.5L31.5 22.5M23.5 30.5H27.5M31.5 22.5V26.5M27.5 30.5H29.5C30.6046 30.5 31.5 29.6046 31.5 28.5V26.5M27.5 30.5L31.5 26.5" stroke="black"/>
</svg>
