<svg width="40" height="40" viewBox="0 0 40 40" fill="none" xmlns="http://www.w3.org/2000/svg">
<path d="M8.5 26.5V26.5C8.5 28.7091 10.2909 30.5 12.5 30.5H27.5C29.7091 30.5 31.5 28.7091 31.5 26.5V25.5M8.5 26.5C8.5 22.9704 8.5 17.779 8.5 13.4992C8.5 11.2901 10.2909 9.5 12.5 9.5H27.5C29.7091 9.5 31.5 11.2909 31.5 13.5V25.5M8.5 26.5L11.8052 23.1948C12.4999 22.5001 13.5884 22.3923 14.4059 22.9373V22.9373C15.3045 23.5364 16.5132 23.3402 17.1762 22.4877L21.4526 16.9895C22.2435 15.9727 23.7753 15.9577 24.5858 16.959L31.5 25.5" stroke="black"/>
</svg>
