<svg width="40" height="40" viewBox="0 0 40 40" fill="none" xmlns="http://www.w3.org/2000/svg">
<path d="M32 20L32.3536 20.3536L32.7071 20L32.3536 19.6464L32 20ZM26.8536 14.1464C26.6583 13.9512 26.3417 13.9512 26.1465 14.1464C25.9512 14.3417 25.9512 14.6583 26.1465 14.8536L26.8536 14.1464ZM26.1465 25.1464C25.9512 25.3417 25.9512 25.6583 26.1465 25.8536C26.3417 26.0488 26.6583 26.0488 26.8536 25.8536L26.1465 25.1464ZM8.5 14C8.22386 14 8 14.2239 8 14.5C8 14.7761 8.22386 15 8.5 15V14ZM8.5 25C8.22386 25 8 25.2239 8 25.5C8 25.7761 8.22386 26 8.5 26V25ZM32.3536 19.6464L26.8536 14.1464L26.1465 14.8536L31.6465 20.3536L32.3536 19.6464ZM31.6465 19.6464L26.1465 25.1464L26.8536 25.8536L32.3536 20.3536L31.6465 19.6464ZM32 19.5H13.5V20.5H32V19.5ZM14 20V18.5H13V20H14ZM9.5 14H8.5V15H9.5V14ZM13 20V21.5H14V20H13ZM9.5 25H8.5V26H9.5V25ZM13 21.5C13 23.433 11.433 25 9.5 25V26C11.9853 26 14 23.9853 14 21.5H13ZM14 18.5C14 16.0147 11.9853 14 9.5 14V15C11.433 15 13 16.567 13 18.5H14Z" fill="black"/>
</svg>
