<svg width="26" height="26" viewBox="0 0 26 26" fill="none" xmlns="http://www.w3.org/2000/svg">
<g clip-path="url(#clip0_892_3638)">
<path fill-rule="evenodd" clip-rule="evenodd" d="M7.70711 4.70711C8.09763 4.31658 8.09763 3.68342 7.70711 3.29289C7.31658 2.90237 6.68342 2.90237 6.29289 3.29289L0.293805 9.29198C0.291322 9.29446 0.288852 9.29695 0.286395 9.29945C0.109253 9.47987 0 9.72718 0 10C0 10.1356 0.0269852 10.2649 0.0758786 10.3828C0.124678 10.5007 0.197017 10.6112 0.292893 10.7071L6.29289 16.7071C6.68342 17.0976 7.31658 17.0976 7.70711 16.7071C8.09763 16.3166 8.09763 15.6834 7.70711 15.2929L3.41421 11H13C15.9174 11 18.7153 12.1589 20.7782 14.2218C22.8411 16.2847 24 19.0826 24 22C24 22.5523 24.4477 23 25 23C25.5523 23 26 22.5523 26 22C26 18.5522 24.6304 15.2456 22.1924 12.8076C19.7544 10.3696 16.4478 9 13 9H3.41421L7.70711 4.70711Z" fill="#767676"/>
</g>
<defs>
<clipPath id="clip0_892_3638">
<rect width="26" height="26" fill="white"/>
</clipPath>
</defs>
</svg>
