<svg width="26" height="26" viewBox="0 0 26 26" fill="none" xmlns="http://www.w3.org/2000/svg">
<path fill-rule="evenodd" clip-rule="evenodd" d="M1.70711 25.0416C1.31658 25.4322 0.683417 25.4322 0.292893 25.0416C-0.097631 24.6511 -0.0976311 24.0179 0.292893 23.6274L10.8995 13.0208L0.292893 2.41421C-0.0976311 2.02369 -0.0976311 1.39052 0.292893 1C0.683417 0.609475 1.31658 0.609476 1.70711 1L12.3137 11.6066L23.6274 0.292893C24.0179 -0.0976311 24.6511 -0.0976311 25.0416 0.292893C25.4322 0.683417 25.4322 1.31658 25.0416 1.70711L13.7279 13.0208L24.3345 23.6274C24.725 24.0179 24.725 24.6511 24.3345 25.0416C23.944 25.4322 23.3108 25.4322 22.9203 25.0416L12.3137 14.435L1.70711 25.0416Z" fill="#767676"/>
</svg>
