<svg width="26" height="26" viewBox="0 0 26 26" fill="none" xmlns="http://www.w3.org/2000/svg">
<g clip-path="url(#clip0_881_3673)">
<path fill-rule="evenodd" clip-rule="evenodd" d="M9.46894 16.5294C9.31657 16.3771 9.10995 16.2915 8.8945 16.2915C8.67905 16.2915 8.47243 16.3771 8.32006 16.5294L1.66406 23.1854V18.6874C1.66406 18.4719 1.57846 18.2653 1.42609 18.1129C1.27371 17.9605 1.06705 17.8749 0.851562 17.8749C0.636074 17.8749 0.429412 17.9605 0.277038 18.1129C0.124665 18.2653 0.0390625 18.4719 0.0390625 18.6874V25.1468C0.0390625 25.3623 0.124665 25.5689 0.277038 25.7213C0.429412 25.8737 0.636074 25.9593 0.851562 25.9593H7.31094C7.52643 25.9593 7.73309 25.8737 7.88546 25.7213C8.03783 25.5689 8.12344 25.3623 8.12344 25.1468C8.12344 24.9313 8.03783 24.7246 7.88546 24.5723C7.73309 24.4199 7.52643 24.3343 7.31094 24.3343H2.81294L9.46894 17.6783C9.62126 17.5259 9.70683 17.3193 9.70683 17.1038C9.70683 16.8884 9.62126 16.6818 9.46894 16.5294ZM16.5279 16.5294C16.6803 16.3771 16.8869 16.2915 17.1024 16.2915C17.3178 16.2915 17.5244 16.3771 17.6768 16.5294L24.3328 23.1854V18.6874C24.3328 18.4719 24.4184 18.2653 24.5708 18.1129C24.7232 17.9605 24.9298 17.8749 25.1453 17.8749C25.3608 17.8749 25.5675 17.9605 25.7198 18.1129C25.8722 18.2653 25.9578 18.4719 25.9578 18.6874V25.1468C25.9578 25.3623 25.8722 25.5689 25.7198 25.7213C25.5675 25.8737 25.3608 25.9593 25.1453 25.9593H18.6859C18.4704 25.9593 18.2638 25.8737 18.1114 25.7213C17.959 25.5689 17.8734 25.3623 17.8734 25.1468C17.8734 24.9313 17.959 24.7246 18.1114 24.5723C18.2638 24.4199 18.4704 24.3343 18.6859 24.3343H23.1839L16.5279 17.6783C16.3756 17.5259 16.2901 17.3193 16.2901 17.1038C16.2901 16.8884 16.3756 16.6818 16.5279 16.5294ZM16.5279 9.4704C16.6803 9.62272 16.8869 9.70829 17.1024 9.70829C17.3178 9.70829 17.5244 9.62272 17.6768 9.4704L24.3328 2.8144V7.3124C24.3328 7.52789 24.4184 7.73455 24.5708 7.88693C24.7232 8.0393 24.9298 8.1249 25.1453 8.1249C25.3608 8.1249 25.5675 8.0393 25.7198 7.88693C25.8722 7.73455 25.9578 7.52789 25.9578 7.3124V0.853027C25.9578 0.637539 25.8722 0.430876 25.7198 0.278503C25.5675 0.12613 25.3608 0.0405273 25.1453 0.0405273H18.6859C18.4704 0.0405273 18.2638 0.12613 18.1114 0.278503C17.959 0.430876 17.8734 0.637539 17.8734 0.853027C17.8734 1.06852 17.959 1.27518 18.1114 1.42755C18.2638 1.57992 18.4704 1.66553 18.6859 1.66553H23.1839L16.5279 8.32153C16.3756 8.47389 16.2901 8.68052 16.2901 8.89596C16.2901 9.11141 16.3756 9.31804 16.5279 9.4704ZM9.46894 9.4704C9.31657 9.62272 9.10995 9.70829 8.8945 9.70829C8.67905 9.70829 8.47243 9.62272 8.32006 9.4704L1.66406 2.8144V7.3124C1.66406 7.52789 1.57846 7.73455 1.42609 7.88693C1.27371 8.0393 1.06705 8.1249 0.851562 8.1249C0.636074 8.1249 0.429412 8.0393 0.277038 7.88693C0.124665 7.73455 0.0390625 7.52789 0.0390625 7.3124V0.853027C0.0390625 0.637539 0.124665 0.430876 0.277038 0.278503C0.429412 0.12613 0.636074 0.0405273 0.851562 0.0405273H7.31094C7.52643 0.0405273 7.73309 0.12613 7.88546 0.278503C8.03783 0.430876 8.12344 0.637539 8.12344 0.853027C8.12344 1.06852 8.03783 1.27518 7.88546 1.42755C7.73309 1.57992 7.52643 1.66553 7.31094 1.66553H2.81294L9.46894 8.32153C9.62126 8.47389 9.70683 8.68052 9.70683 8.89596C9.70683 9.11141 9.62126 9.31804 9.46894 9.4704Z" fill="#767676"/>
</g>
<defs>
<clipPath id="clip0_881_3673">
<rect width="26" height="26" fill="white"/>
</clipPath>
</defs>
</svg>
