<svg width="26" height="27" viewBox="0 0 26 27" fill="none" xmlns="http://www.w3.org/2000/svg">
<path d="M7.15975 2.18075C8.78391 0.780219 10.8554 0.00672509 13 0C17.3713 0 20.9999 3.25 21.3948 7.44088C23.9818 7.8065 26 9.97262 26 12.6311C26 15.5496 23.5658 17.875 20.6164 17.875H16.25C16.0345 17.875 15.8278 17.7894 15.6755 17.637C15.5231 17.4847 15.4375 17.278 15.4375 17.0625C15.4375 16.847 15.5231 16.6403 15.6755 16.488C15.8278 16.3356 16.0345 16.25 16.25 16.25H20.618C22.7159 16.25 24.375 14.6055 24.375 12.6311C24.375 10.6551 22.7175 9.01062 20.6164 9.01062H19.8039V8.19812C19.8055 4.59063 16.783 1.625 13 1.625C11.2448 1.63201 9.54987 2.26595 8.22087 3.4125C6.99075 4.472 6.34725 5.74925 6.34725 6.75188V7.47988L5.62413 7.5595C3.354 7.80813 1.625 9.672 1.625 11.8917C1.625 14.2756 3.62375 16.25 6.14412 16.25H9.75C9.96549 16.25 10.1722 16.3356 10.3245 16.488C10.4769 16.6403 10.5625 16.847 10.5625 17.0625C10.5625 17.278 10.4769 17.4847 10.3245 17.637C10.1722 17.7894 9.96549 17.875 9.75 17.875H6.14412C2.7755 17.875 0 15.2197 0 11.8917C0 9.02687 2.05725 6.65438 4.78075 6.05312C5.01312 4.65075 5.915 3.25325 7.15975 2.18075Z" fill="#767676"/>
<path d="M12.4258 25.7628C12.5013 25.8384 12.5909 25.8984 12.6896 25.9394C12.7883 25.9804 12.8942 26.0015 13.001 26.0015C13.1079 26.0015 13.2137 25.9804 13.3124 25.9394C13.4111 25.8984 13.5008 25.8384 13.5763 25.7628L18.4513 20.8878C18.6038 20.7352 18.6896 20.5283 18.6896 20.3125C18.6896 20.0967 18.6038 19.8898 18.4513 19.7372C18.2987 19.5847 18.0918 19.499 17.876 19.499C17.6603 19.499 17.4533 19.5847 17.3008 19.7372L13.8135 23.2261V8.9375C13.8135 8.72201 13.7279 8.51535 13.5756 8.36298C13.4232 8.2106 13.2165 8.125 13.001 8.125C12.7855 8.125 12.5789 8.2106 12.4265 8.36298C12.2741 8.51535 12.1885 8.72201 12.1885 8.9375V23.2261L8.70128 19.7372C8.54871 19.5847 8.34179 19.499 8.12603 19.499C7.91027 19.499 7.70334 19.5847 7.55078 19.7372C7.39821 19.8898 7.3125 20.0967 7.3125 20.3125C7.3125 20.5283 7.39821 20.7352 7.55078 20.8878L12.4258 25.7628Z" fill="#767676"/>
</svg>
