<svg width="26" height="26" viewBox="0 0 26 26" fill="none" xmlns="http://www.w3.org/2000/svg">
<g clip-path="url(#clip0_892_3639)">
<path fill-rule="evenodd" clip-rule="evenodd" d="M18.2929 4.70711C17.9024 4.31658 17.9024 3.68342 18.2929 3.29289C18.6834 2.90237 19.3166 2.90237 19.7071 3.29289L25.7062 9.29198C25.7087 9.29446 25.7111 9.29695 25.7136 9.29945C25.8907 9.47987 26 9.72718 26 10C26 10.1356 25.973 10.2649 25.9241 10.3828C25.8753 10.5007 25.803 10.6112 25.7071 10.7071L19.7071 16.7071C19.3166 17.0976 18.6834 17.0976 18.2929 16.7071C17.9024 16.3166 17.9024 15.6834 18.2929 15.2929L22.5858 11H13C10.0826 11 7.28473 12.1589 5.22183 14.2218C3.15893 16.2847 2 19.0826 2 22C2 22.5523 1.55228 23 1 23C0.447716 23 0 22.5523 0 22C0 18.5522 1.36964 15.2456 3.80761 12.8076C6.24558 10.3696 9.55219 9 13 9H22.5858L18.2929 4.70711Z" fill="#767676"/>
</g>
<defs>
<clipPath id="clip0_892_3639">
<rect width="26" height="26" fill="white"/>
</clipPath>
</defs>
</svg>
