<svg width="26" height="26" viewBox="0 0 26 26" fill="none" xmlns="http://www.w3.org/2000/svg">
<g clip-path="url(#clip0_881_3670)">
<path fill-rule="evenodd" clip-rule="evenodd" d="M2.60156 23.1724V10.92H4.33475V23.1724C4.33475 23.4223 4.42605 23.662 4.58857 23.8388C4.75109 24.0156 4.97151 24.1148 5.20134 24.1148H20.8C21.0299 24.1148 21.2503 24.0156 21.4128 23.8388C21.5753 23.662 21.6666 23.4223 21.6666 23.1724V10.92H23.3998V23.1724C23.3998 23.9222 23.1259 24.6414 22.6384 25.1717C22.1508 25.7019 21.4895 25.9998 20.8 25.9998H5.20134C4.51184 25.9998 3.85057 25.7019 3.36302 25.1717C2.87547 24.6414 2.60156 23.9222 2.60156 23.1724ZM21.6666 2.43761V9.03503L18.2002 5.26507V2.43761C18.2002 2.18764 18.2915 1.94792 18.4541 1.77117C18.6166 1.59442 18.837 1.49512 19.0668 1.49512H20.8C21.0299 1.49512 21.2503 1.59442 21.4128 1.77117C21.5753 1.94792 21.6666 2.18764 21.6666 2.43761Z" fill="#767676"/>
<path fill-rule="evenodd" clip-rule="evenodd" d="M11.7746 0.551896C12.0997 0.198517 12.5404 0 13 0C13.4596 0 13.9003 0.198517 14.2254 0.551896L25.7459 13.0795C25.9086 13.2564 26 13.4965 26 13.7467C26 13.997 25.9086 14.237 25.7459 14.414C25.5831 14.591 25.3624 14.6904 25.1323 14.6904C24.9022 14.6904 24.6815 14.591 24.5188 14.414L13 1.88457L1.48124 14.414C1.31851 14.591 1.09781 14.6904 0.867688 14.6904C0.637563 14.6904 0.416863 14.591 0.25414 14.414C0.091417 14.237 0 13.997 0 13.7467C0 13.4965 0.091417 13.2564 0.25414 13.0795L11.7746 0.551896Z" fill="#767676"/>
</g>
<defs>
<clipPath id="clip0_881_3670">
<rect width="26" height="26" fill="white"/>
</clipPath>
</defs>
</svg>
