<svg width="44" height="44" viewBox="0 0 44 44" fill="none" xmlns="http://www.w3.org/2000/svg">
<path d="M43.9248 43.0582C43.9248 43.0344 43.9332 43.0106 43.9359 42.9868C43.938 42.9616 43.938 42.9364 43.9359 42.9112C43.9359 42.8972 43.9359 42.8818 43.9359 42.8678V29.0202C43.9367 28.7628 43.8362 28.5155 43.6561 28.3317L37.8315 22.4372C37.7033 22.3064 37.6315 22.1305 37.6315 21.9474C37.6315 21.7642 37.7033 21.5883 37.8315 21.4575L43.5133 15.5938C43.6907 15.4128 43.7911 15.17 43.7932 14.9165L43.8506 0.975101C43.8506 0.959707 43.8506 0.944313 43.8506 0.928919C43.852 0.903282 43.852 0.877585 43.8506 0.851948C43.8506 0.828157 43.8506 0.804367 43.8394 0.780576C43.8282 0.756785 43.8296 0.734394 43.8226 0.712003C43.8159 0.686888 43.808 0.662132 43.7988 0.637832C43.7988 0.623837 43.7904 0.608443 43.7848 0.594448C43.7792 0.580454 43.7778 0.581853 43.775 0.574856C43.7722 0.567859 43.7526 0.528674 43.74 0.506283L43.7064 0.447505C43.6924 0.426513 43.6784 0.406921 43.6631 0.387329C43.6477 0.367736 43.6365 0.349543 43.6211 0.33135C43.6057 0.313158 43.5875 0.296364 43.5707 0.27957L43.5203 0.23059C43.5021 0.215196 43.4825 0.201201 43.4629 0.187206C43.4433 0.173212 43.4251 0.157818 43.4042 0.145223C43.3832 0.132628 43.365 0.122831 43.344 0.111636L43.2768 0.0766494L43.2544 0.0654537L43.2124 0.0514591C43.1886 0.042528 43.1643 0.0350504 43.1397 0.0290678C43.1173 0.0220705 43.0935 0.0178721 43.0697 0.0122742L42.9997 0.00107858C42.9741 -0.000359528 42.9484 -0.000359528 42.9227 0.00107858H42.8808H29.0261C28.7688 0.000306907 28.5214 0.100849 28.3376 0.28097L22.4151 6.1279C22.2843 6.25611 22.1084 6.32792 21.9253 6.32792C21.7421 6.32792 21.5663 6.25611 21.4355 6.1279L15.6053 0.48669C15.4243 0.309269 15.1815 0.208944 14.928 0.206799L0.986616 0.149421H0.939035H0.866263C0.841073 0.149421 0.817283 0.157818 0.793492 0.162016L0.724919 0.17741L0.653546 0.201201C0.638799 0.205487 0.624314 0.210627 0.610163 0.216595L0.587771 0.226391C0.56538 0.237587 0.542989 0.248783 0.521997 0.261378C0.501005 0.273973 0.480014 0.282369 0.460421 0.294965L0.401643 0.336948L0.345666 0.380331L0.295285 0.429313L0.244905 0.481092L0.202921 0.53707C0.187527 0.556663 0.173533 0.576255 0.159538 0.597247C0.145543 0.618239 0.137146 0.636432 0.12735 0.656024C0.114306 0.678151 0.102623 0.701051 0.0923636 0.724598C0.0880752 0.73177 0.0843336 0.739255 0.0811688 0.746989C0.0811688 0.759584 0.0727712 0.773579 0.0671733 0.787573C0.0615755 0.801568 0.0503801 0.836554 0.0433828 0.861745C0.036776 0.884246 0.0316339 0.907152 0.0279887 0.930318C0.0224357 0.95385 0.018231 0.977679 0.0153941 1.00169C0.0153941 1.02688 0.0153941 1.05207 0.0153941 1.07726C0.0153941 1.10245 0.0153941 1.10525 0.0153941 1.12064V14.9669C0.0146224 15.2242 0.115164 15.4716 0.295285 15.6554L6.06665 21.4967C6.19485 21.6275 6.26667 21.8034 6.26667 21.9865C6.26667 22.1697 6.19485 22.3456 6.06665 22.4764L0.33587 28.3975C0.158449 28.5785 0.0581236 28.8213 0.0559785 29.0748L0 43.0162C0 43.0316 0 43.047 0 43.0624C0 43.0778 0 43.1141 0 43.1393C0 43.1645 0.00839623 43.1869 0.0125946 43.2107C0.0163888 43.2338 0.0215289 43.2567 0.0279887 43.2793C0.0279887 43.3045 0.0433825 43.3297 0.0517792 43.3535C0.060176 43.3772 0.060176 43.3828 0.0671733 43.3968L0.0769695 43.4164C0.0872286 43.44 0.0989124 43.4629 0.111956 43.485C0.121783 43.5053 0.133006 43.525 0.145544 43.5438C0.158139 43.5648 0.173532 43.5844 0.187527 43.6039C0.201521 43.6235 0.215517 43.6417 0.230911 43.6599C0.246619 43.6782 0.263443 43.6955 0.28129 43.7117C0.297041 43.7291 0.313868 43.7454 0.331671 43.7607L0.387649 43.8041C0.407241 43.8181 0.426834 43.8335 0.446426 43.8461C0.466018 43.8587 0.48701 43.8684 0.506603 43.8796L0.575177 43.9146L0.596168 43.9258L0.677337 43.9538H0.685734C0.726541 43.9664 0.768154 43.9762 0.810286 43.9832H0.841073C0.884202 43.9892 0.927674 43.9925 0.971222 43.993H14.8174C15.0748 43.9938 15.3221 43.8932 15.506 43.7131L21.4733 37.8172C21.6041 37.689 21.7799 37.6172 21.9631 37.6172C22.1462 37.6172 22.3221 37.689 22.4529 37.8172L28.3306 43.5144C28.5117 43.6918 28.7545 43.7921 29.0079 43.7943L42.9493 43.8517C42.9929 43.8512 43.0364 43.8479 43.0795 43.8419H43.1103C43.1524 43.8349 43.194 43.8251 43.2348 43.8125H43.2432C43.2712 43.8041 43.2978 43.7943 43.3258 43.7831L43.3468 43.7719C43.3698 43.7621 43.3923 43.7509 43.4139 43.7383L43.4741 43.7033C43.4951 43.6907 43.5133 43.6767 43.5329 43.6627C43.5525 43.6487 43.5721 43.6333 43.5889 43.6179C43.6057 43.6026 43.6239 43.5858 43.6407 43.569C43.6575 43.5522 43.6742 43.5354 43.6896 43.5172C43.705 43.499 43.719 43.4808 43.733 43.4626C43.747 43.4444 43.7624 43.4234 43.775 43.4024C43.7876 43.3814 43.7974 43.3632 43.8086 43.3437C43.8216 43.321 43.8333 43.2977 43.8436 43.2737C43.8436 43.2737 43.852 43.2597 43.8548 43.2527C43.8576 43.2457 43.8632 43.2261 43.8674 43.2121C43.877 43.1878 43.8854 43.1631 43.8926 43.1379C43.915 43.1043 43.9206 43.0806 43.9248 43.0582ZM28.0451 16.6084V27.3507C28.0451 27.5362 27.9714 27.7142 27.8402 27.8454C27.7089 27.9767 27.531 28.0504 27.3454 28.0504H16.6032C16.4176 28.0504 16.2396 27.9767 16.1084 27.8454C15.9771 27.7142 15.9034 27.5362 15.9034 27.3507V16.6098C15.9034 16.4243 15.9771 16.2463 16.1084 16.115C16.2396 15.9838 16.4176 15.9101 16.6032 15.9101H27.3454C27.531 15.9101 27.7089 15.9838 27.8402 16.115C27.9714 16.2463 28.0451 16.4243 28.0451 16.6098V16.6084ZM40.7928 39.3272L30.2115 28.8173C30.1459 28.7523 30.0938 28.6749 30.0582 28.5896C30.0227 28.5043 30.0044 28.4129 30.0044 28.3205V19.0001C30.0044 18.8613 30.0457 18.7257 30.123 18.6104C30.2003 18.4951 30.3102 18.4055 30.4386 18.3528C30.567 18.3002 30.7082 18.2869 30.8442 18.3147C30.9802 18.3425 31.1048 18.4101 31.2023 18.5089L33.8808 21.2182L35.2803 22.6485C35.3141 22.6811 35.3496 22.712 35.3867 22.7409L41.7864 29.2175C41.9155 29.3484 41.9879 29.5249 41.9879 29.7087V38.8318C41.9884 38.9705 41.9477 39.1062 41.871 39.2217C41.7942 39.3372 41.6848 39.4274 41.5568 39.4806C41.4287 39.5338 41.2877 39.5478 41.1517 39.5207C41.0156 39.4937 40.8907 39.4268 40.7928 39.3286V39.3272ZM41.6324 14.7164L36.4782 20.0427C36.4131 20.1093 36.3352 20.1623 36.2493 20.1985C36.1634 20.2346 36.0712 20.2532 35.9779 20.2532C35.8847 20.2532 35.7925 20.2346 35.7065 20.1985C35.6206 20.1623 35.5428 20.1093 35.4776 20.0427L35.2551 19.8188L30.942 15.4063C30.8138 15.2755 30.742 15.0996 30.742 14.9165C30.742 14.7333 30.8138 14.5575 30.942 14.4267L40.6724 4.5843C40.7703 4.48619 40.8951 4.41934 41.031 4.39224C41.1669 4.36514 41.3078 4.379 41.4358 4.43206C41.5638 4.48512 41.6732 4.575 41.75 4.6903C41.8269 4.8056 41.8678 4.94113 41.8675 5.07971L41.8298 14.2336C41.8305 14.4136 41.7619 14.587 41.638 14.7178L41.6324 14.7164ZM29.7119 1.95192H38.8335C38.9719 1.95167 39.1073 1.99248 39.2225 2.06917C39.3377 2.14587 39.4276 2.25501 39.4808 2.38279C39.534 2.51057 39.5481 2.65126 39.5213 2.78705C39.4945 2.92284 39.428 3.04764 39.3303 3.14566L28.8204 13.727C28.7554 13.7926 28.678 13.8446 28.5927 13.8802C28.5075 13.9157 28.416 13.9341 28.3236 13.9341H19.0466C18.9075 13.9341 18.7715 13.8926 18.656 13.8149C18.5406 13.7372 18.4509 13.6269 18.3985 13.498C18.3461 13.3691 18.3333 13.2275 18.3617 13.0913C18.3902 12.9551 18.4586 12.8305 18.5582 12.7333L22.6586 8.72529C22.7215 8.66396 22.7757 8.59427 22.8195 8.51817C22.8474 8.46729 22.8817 8.42025 22.9217 8.37823L29.2193 2.15624C29.3501 2.02578 29.5271 1.95233 29.7119 1.95192V1.95192ZM14.7279 2.36336L20.0164 7.48817C20.0831 7.55334 20.136 7.63116 20.1722 7.71708C20.2083 7.80299 20.227 7.89527 20.227 7.98848C20.227 8.08169 20.2083 8.17396 20.1722 8.25988C20.136 8.34579 20.0831 8.42362 20.0164 8.48878L15.4052 13.044C15.2744 13.1722 15.0986 13.244 14.9154 13.244C14.7323 13.244 14.5564 13.1722 14.4256 13.044L4.59442 3.32759C4.49534 3.22988 4.42764 3.10484 4.39997 2.96846C4.37231 2.83208 4.38594 2.69055 4.43912 2.56196C4.4923 2.43337 4.58262 2.32355 4.69853 2.24654C4.81443 2.16954 4.95067 2.12884 5.08982 2.12965L14.2437 2.16744C14.4243 2.16779 14.5978 2.238 14.7279 2.36336V2.36336ZM3.15438 4.67107L13.7385 15.1824C13.8041 15.2474 13.8562 15.3248 13.8917 15.4101C13.9273 15.4953 13.9456 15.5868 13.9456 15.6792V24.9982C13.9458 25.1371 13.9047 25.2729 13.8275 25.3884C13.7503 25.5039 13.6405 25.5938 13.512 25.6466C13.3835 25.6994 13.2422 25.7128 13.1061 25.6851C12.97 25.6573 12.8452 25.5897 12.7477 25.4908L2.16356 14.7807C2.03412 14.6495 1.9617 14.4725 1.96204 14.2881V5.16787C1.96207 5.02975 2.00297 4.89473 2.0796 4.77981C2.15622 4.6649 2.26515 4.57523 2.39264 4.52211C2.52014 4.46899 2.6605 4.45478 2.79605 4.48129C2.93161 4.5078 3.05628 4.57383 3.15438 4.67107V4.67107ZM2.21254 29.2749L7.37374 23.9486C7.43895 23.8815 7.51695 23.8282 7.60312 23.7918C7.6893 23.7554 7.78189 23.7366 7.87544 23.7366C7.96899 23.7366 8.06159 23.7554 8.14777 23.7918C8.23394 23.8282 8.31194 23.8815 8.37715 23.9486L12.9086 28.585C13.0368 28.7158 13.1086 28.8916 13.1086 29.0748C13.1086 29.2579 13.0368 29.4338 12.9086 29.5646L3.17537 39.4112C3.07719 39.5085 2.95239 39.5746 2.8167 39.601C2.68102 39.6275 2.54054 39.6132 2.41299 39.5599C2.28543 39.5066 2.17653 39.4167 2.10001 39.3016C2.02349 39.1864 1.98278 39.0512 1.98303 38.913L2.01522 29.7549C2.01801 29.5757 2.08851 29.4043 2.21254 29.2749V29.2749ZM14.1387 42.0408H5.01705C4.87865 42.041 4.74327 42.0002 4.62806 41.9235C4.51285 41.8468 4.42296 41.7377 4.36978 41.6099C4.3166 41.4821 4.30251 41.3414 4.3293 41.2056C4.35608 41.0698 4.42253 40.945 4.52025 40.847L15.0316 30.2657C15.0966 30.2001 15.174 30.148 15.2593 30.1125C15.3445 30.0769 15.436 30.0586 15.5284 30.0586H24.8474C24.9863 30.0584 25.1221 30.0995 25.2376 30.1767C25.3531 30.2539 25.4429 30.3637 25.4958 30.4922C25.5486 30.6207 25.562 30.762 25.5343 30.8981C25.5065 31.0342 25.4389 31.159 25.34 31.2565L14.6313 41.835C14.5008 41.966 14.3236 42.04 14.1387 42.0408V42.0408ZM29.2207 41.6363L23.8943 36.4723C23.8275 36.4071 23.7743 36.3292 23.738 36.2432C23.7018 36.1571 23.6831 36.0647 23.6831 35.9713C23.6831 35.8779 23.7018 35.7855 23.738 35.6995C23.7743 35.6134 23.8275 35.5355 23.8943 35.4703L28.5307 30.9389C28.6615 30.8107 28.8374 30.7388 29.0205 30.7388C29.2037 30.7388 29.3795 30.8107 29.5103 30.9389L39.3485 40.6707C39.4475 40.7683 39.5152 40.8932 39.5429 41.0295C39.5706 41.1657 39.5571 41.3071 39.5041 41.4357C39.4511 41.5642 39.361 41.674 39.2453 41.7511C39.1296 41.8283 38.9936 41.8692 38.8545 41.8686L29.7007 41.8308C29.5217 41.8298 29.3499 41.7602 29.2207 41.6363V41.6363Z" fill="black"/>
</svg>
