<svg width="26" height="26" viewBox="0 0 26 26" fill="none" xmlns="http://www.w3.org/2000/svg">
<path d="M13 10.5625C13.2155 10.5625 13.4222 10.6481 13.5745 10.8005C13.7269 10.9528 13.8125 11.1595 13.8125 11.375V13.8125H16.25C16.4655 13.8125 16.6722 13.8981 16.8245 14.0505C16.9769 14.2028 17.0625 14.4095 17.0625 14.625C17.0625 14.8405 16.9769 15.0472 16.8245 15.1995C16.6722 15.3519 16.4655 15.4375 16.25 15.4375H13.8125V17.875C13.8125 18.0905 13.7269 18.2972 13.5745 18.4495C13.4222 18.6019 13.2155 18.6875 13 18.6875C12.7845 18.6875 12.5778 18.6019 12.4255 18.4495C12.2731 18.2972 12.1875 18.0905 12.1875 17.875V15.4375H9.75C9.53451 15.4375 9.32785 15.3519 9.17548 15.1995C9.0231 15.0472 8.9375 14.8405 8.9375 14.625C8.9375 14.4095 9.0231 14.2028 9.17548 14.0505C9.32785 13.8981 9.53451 13.8125 9.75 13.8125H12.1875V11.375C12.1875 11.1595 12.2731 10.9528 12.4255 10.8005C12.5778 10.6481 12.7845 10.5625 13 10.5625Z" fill="#767676"/>
<path d="M22.75 7.3125V22.75C22.75 23.612 22.4076 24.4386 21.7981 25.0481C21.1886 25.6576 20.362 26 19.5 26H6.5C5.63805 26 4.8114 25.6576 4.2019 25.0481C3.59241 24.4386 3.25 23.612 3.25 22.75V3.25C3.25 2.38805 3.59241 1.5614 4.2019 0.951903C4.8114 0.34241 5.63805 0 6.5 0L15.4375 0L22.75 7.3125ZM17.875 7.3125C17.2285 7.3125 16.6085 7.05569 16.1514 6.59857C15.6943 6.14145 15.4375 5.52147 15.4375 4.875V1.625H6.5C6.06902 1.625 5.6557 1.7962 5.35095 2.10095C5.0462 2.4057 4.875 2.81902 4.875 3.25V22.75C4.875 23.181 5.0462 23.5943 5.35095 23.899C5.6557 24.2038 6.06902 24.375 6.5 24.375H19.5C19.931 24.375 20.3443 24.2038 20.649 23.899C20.9538 23.5943 21.125 23.181 21.125 22.75V7.3125H17.875Z" fill="#767676"/>
</svg>
