<svg width="26" height="26" viewBox="0 0 26 26" fill="none" xmlns="http://www.w3.org/2000/svg">
<path fill-rule="evenodd" clip-rule="evenodd" d="M3.4404 1.41818C2.32356 1.41818 1.41818 2.32356 1.41818 3.4404V22.5596C1.41818 23.6765 2.32355 24.5818 3.4404 24.5818H4.09666V15.1859C4.09666 14.3417 4.78101 13.6574 5.62515 13.6574H20.3742C21.2184 13.6574 21.9027 14.3417 21.9027 15.1859V24.5818H22.5596C23.6765 24.5818 24.5818 23.6765 24.5818 22.5596V7.30307C24.5818 6.76673 24.3688 6.25238 23.9895 5.87315L23.9895 5.87313L20.1269 2.0105C19.8615 1.74514 19.53 1.56115 19.1712 1.47457C19.1718 1.49246 19.1721 1.51044 19.1721 1.52848V8.08364C19.1721 8.92777 18.4879 9.61212 17.6436 9.61212H8.35718C7.51302 9.61212 6.82869 8.92779 6.82869 8.08364V1.52848C6.82869 1.49139 6.83001 1.45461 6.83261 1.41818H3.4404ZM21.9027 26H22.5596C24.4597 26 26 24.4597 26 22.5596V7.30307C26 6.39061 25.6376 5.51553 24.9923 4.87031L21.1297 1.00768L21.1297 1.00766C20.4844 0.362472 19.6094 0 18.697 0H17.6436H8.35718H3.4404C1.54032 0 0 1.54032 0 3.4404V22.5596C0 24.4597 1.54033 26 3.4404 26H4.09666V26.0008H21.9027V26ZM20.4845 24.5818V15.1859C20.4845 15.1249 20.4352 15.0756 20.3742 15.0756H5.62515C5.56421 15.0756 5.51484 15.1249 5.51484 15.1859V24.5818H20.4845ZM8.35718 1.41818H17.6436C17.7046 1.41818 17.7539 1.46754 17.7539 1.52848V8.08364C17.7539 8.14458 17.7046 8.19394 17.6436 8.19394H8.35718C8.29626 8.19394 8.24687 8.14455 8.24687 8.08364V1.52848C8.24687 1.46757 8.29626 1.41818 8.35718 1.41818Z" fill="#767676"/>
</svg>
