<svg width="26" height="26" viewBox="0 0 26 26" fill="none" xmlns="http://www.w3.org/2000/svg">
<g clip-path="url(#clip0_881_3672)">
<path fill-rule="evenodd" clip-rule="evenodd" d="M10.5625 19.5C11.7362 19.5 12.8984 19.2688 13.9827 18.8197C15.0671 18.3705 16.0523 17.7122 16.8823 16.8823C17.7122 16.0523 18.3705 15.0671 18.8197 13.9827C19.2688 12.8984 19.5 11.7362 19.5 10.5625C19.5 9.38881 19.2688 8.22661 18.8197 7.14227C18.3705 6.05792 17.7122 5.07266 16.8823 4.24273C16.0523 3.41281 15.0671 2.75448 13.9827 2.30533C12.8984 1.85618 11.7362 1.625 10.5625 1.625C8.19213 1.625 5.91884 2.56663 4.24273 4.24273C2.56663 5.91884 1.625 8.19213 1.625 10.5625C1.625 12.9329 2.56663 15.2062 4.24273 16.8823C5.91884 18.5584 8.19213 19.5 10.5625 19.5ZM21.125 10.5625C21.125 13.3638 20.0122 16.0505 18.0313 18.0313C16.0505 20.0122 13.3638 21.125 10.5625 21.125C7.76115 21.125 5.07454 20.0122 3.09368 18.0313C1.11283 16.0505 0 13.3638 0 10.5625C0 7.76115 1.11283 5.07454 3.09368 3.09368C5.07454 1.11283 7.76115 0 10.5625 0C13.3638 0 16.0505 1.11283 18.0313 3.09368C20.0122 5.07454 21.125 7.76115 21.125 10.5625Z" fill="#767676"/>
<path d="M16.8086 19.081C16.8573 19.146 16.9093 19.2077 16.9678 19.2679L23.2241 25.5241C23.5288 25.829 23.9421 26.0004 24.3732 26.0006C24.8043 26.0007 25.2177 25.8296 25.5227 25.5249C25.8276 25.2202 25.999 24.8069 25.9991 24.3758C25.9993 23.9448 25.8282 23.5313 25.5235 23.2264L19.2672 16.9701C19.2091 16.9113 19.1467 16.857 19.0803 16.8076C18.4429 17.6768 17.6769 18.4439 16.8086 19.0826V19.081Z" fill="#767676"/>
<path fill-rule="evenodd" clip-rule="evenodd" d="M4.875 10.5625C4.875 10.347 4.9606 10.1403 5.11298 9.98798C5.26535 9.8356 5.47201 9.75 5.6875 9.75H15.4375C15.653 9.75 15.8597 9.8356 16.012 9.98798C16.1644 10.1403 16.25 10.347 16.25 10.5625C16.25 10.778 16.1644 10.9847 16.012 11.137C15.8597 11.2894 15.653 11.375 15.4375 11.375H5.6875C5.47201 11.375 5.26535 11.2894 5.11298 11.137C4.9606 10.9847 4.875 10.778 4.875 10.5625Z" fill="#767676"/>
</g>
<defs>
<clipPath id="clip0_881_3672">
<rect width="26" height="26" fill="white"/>
</clipPath>
</defs>
</svg>
