<svg width="26" height="26" viewBox="0 0 26 26" fill="none" xmlns="http://www.w3.org/2000/svg">
<g clip-path="url(#clip0_881_3671)">
<path fill-rule="evenodd" clip-rule="evenodd" d="M15.4375 19.5C14.2638 19.5 13.1016 19.2688 12.0173 18.8197C10.9329 18.3705 9.94766 17.7122 9.11773 16.8823C8.28781 16.0523 7.62948 15.0671 7.18033 13.9827C6.73117 12.8984 6.5 11.7362 6.5 10.5625C6.5 9.38881 6.73117 8.22661 7.18033 7.14227C7.62948 6.05792 8.28781 5.07266 9.11773 4.24273C9.94766 3.41281 10.9329 2.75448 12.0173 2.30533C13.1016 1.85618 14.2638 1.625 15.4375 1.625C17.8079 1.625 20.0812 2.56663 21.7573 4.24273C23.4334 5.91884 24.375 8.19213 24.375 10.5625C24.375 12.9329 23.4334 15.2062 21.7573 16.8823C20.0812 18.5584 17.8079 19.5 15.4375 19.5ZM4.875 10.5625C4.875 13.3638 5.98783 16.0505 7.96869 18.0313C9.94954 20.0122 12.6362 21.125 15.4375 21.125C18.2388 21.125 20.9255 20.0122 22.9063 18.0313C24.8872 16.0505 26 13.3638 26 10.5625C26 7.76115 24.8872 5.07454 22.9063 3.09368C20.9255 1.11283 18.2388 0 15.4375 0C12.6362 0 9.94954 1.11283 7.96869 3.09368C5.98783 5.07454 4.875 7.76115 4.875 10.5625Z" fill="#767676"/>
<path d="M9.19141 19.081C9.14266 19.146 9.09066 19.2077 9.03216 19.2679L2.77591 25.5241C2.47121 25.829 2.05786 26.0004 1.62679 26.0006C1.19573 26.0007 0.78226 25.8296 0.477344 25.5249C0.172427 25.2202 0.00104237 24.8069 0.000889778 24.3758C0.00073719 23.9448 0.171831 23.5313 0.476531 23.2264L6.73278 16.9701C6.79088 16.9113 6.85335 16.857 6.91966 16.8076C7.55712 17.6768 8.32314 18.4439 9.19141 19.0826V19.081Z" fill="#767676"/>
<path fill-rule="evenodd" clip-rule="evenodd" d="M15.4375 4.875C15.222 4.875 15.0153 4.9606 14.863 5.11298C14.7106 5.26535 14.625 5.47201 14.625 5.6875V9.75H10.5625C10.347 9.75 10.1403 9.8356 9.98798 9.98798C9.8356 10.1403 9.75 10.347 9.75 10.5625C9.75 10.778 9.8356 10.9847 9.98798 11.137C10.1403 11.2894 10.347 11.375 10.5625 11.375H14.625V15.4375C14.625 15.653 14.7106 15.8597 14.863 16.012C15.0153 16.1644 15.222 16.25 15.4375 16.25C15.653 16.25 15.8597 16.1644 16.012 16.012C16.1644 15.8597 16.25 15.653 16.25 15.4375V11.375H20.3125C20.528 11.375 20.7347 11.2894 20.887 11.137C21.0394 10.9847 21.125 10.778 21.125 10.5625C21.125 10.347 21.0394 10.1403 20.887 9.98798C20.7347 9.8356 20.528 9.75 20.3125 9.75H16.25V5.6875C16.25 5.47201 16.1644 5.26535 16.012 5.11298C15.8597 4.9606 15.653 4.875 15.4375 4.875Z" fill="#767676"/>
</g>
<defs>
<clipPath id="clip0_881_3671">
<rect width="26" height="26" fill="white" transform="matrix(-1 0 0 1 26 0)"/>
</clipPath>
</defs>
</svg>
